<?xml version="1.0" encoding="UTF-8" standalone="no"?>
<!DOCTYPE svg PUBLIC "-//W3C//DTD SVG 1.1//EN"
 "http://www.w3.org/Graphics/SVG/1.1/DTD/svg11.dtd">
<!-- Generated by graphviz version 2.43.0 (0)
 -->
<!-- Title: %3 Pages: 1 -->
<svg width="844pt" height="282pt"
 viewBox="0.00 0.00 844.00 282.00" xmlns="http://www.w3.org/2000/svg" xmlns:xlink="http://www.w3.org/1999/xlink">
<g id="graph0" class="graph" transform="scale(1 1) rotate(0) translate(4 278)">
<title>%3</title>
<polygon fill="white" stroke="transparent" points="-4,4 -4,-278 840,-278 840,4 -4,4"/>
<!-- 80 -->
<g id="node1" class="node">
<title>80</title>
<polygon fill="none" stroke="black" points="305,-227.5 305,-273.5 705,-273.5 705,-227.5 305,-227.5"/>
<text text-anchor="middle" x="505" y="-258.3" font-family="monospace" font-size="14.00">00000000a0000000 / 3</text>
<polyline fill="none" stroke="black" points="305,-250.5 705,-250.5 "/>
<text text-anchor="middle" x="317.5" y="-235.3" font-family="monospace" font-size="14.00">0</text>
<polyline fill="none" stroke="black" points="330,-227.5 330,-250.5 "/>
<text text-anchor="middle" x="342.5" y="-235.3" font-family="monospace" font-size="14.00">1</text>
<polyline fill="none" stroke="black" points="355,-227.5 355,-250.5 "/>
<text text-anchor="middle" x="367.5" y="-235.3" font-family="monospace" font-size="14.00">2</text>
<polyline fill="none" stroke="black" points="380,-227.5 380,-250.5 "/>
<text text-anchor="middle" x="392.5" y="-235.3" font-family="monospace" font-size="14.00">3</text>
<polyline fill="none" stroke="black" points="405,-227.5 405,-250.5 "/>
<text text-anchor="middle" x="417.5" y="-235.3" font-family="monospace" font-size="14.00">4</text>
<polyline fill="none" stroke="black" points="430,-227.5 430,-250.5 "/>
<text text-anchor="middle" x="442.5" y="-235.3" font-family="monospace" font-size="14.00">5</text>
<polyline fill="none" stroke="black" points="455,-227.5 455,-250.5 "/>
<text text-anchor="middle" x="467.5" y="-235.3" font-family="monospace" font-size="14.00">6</text>
<polyline fill="none" stroke="black" points="480,-227.5 480,-250.5 "/>
<text text-anchor="middle" x="492.5" y="-235.3" font-family="monospace" font-size="14.00">7</text>
<polyline fill="none" stroke="black" points="505,-227.5 505,-250.5 "/>
<text text-anchor="middle" x="517.5" y="-235.3" font-family="monospace" font-size="14.00">8</text>
<polyline fill="none" stroke="black" points="530,-227.5 530,-250.5 "/>
<text text-anchor="middle" x="542.5" y="-235.3" font-family="monospace" font-size="14.00">9</text>
<polyline fill="none" stroke="black" points="555,-227.5 555,-250.5 "/>
<text text-anchor="middle" x="567.5" y="-235.3" font-family="monospace" font-size="14.00">A</text>
<polyline fill="none" stroke="black" points="580,-227.5 580,-250.5 "/>
<text text-anchor="middle" x="592.5" y="-235.3" font-family="monospace" font-size="14.00">B</text>
<polyline fill="none" stroke="black" points="605,-227.5 605,-250.5 "/>
<text text-anchor="middle" x="617.5" y="-235.3" font-family="monospace" font-size="14.00">C</text>
<polyline fill="none" stroke="black" points="630,-227.5 630,-250.5 "/>
<text text-anchor="middle" x="642.5" y="-235.3" font-family="monospace" font-size="14.00">D</text>
<polyline fill="none" stroke="black" points="655,-227.5 655,-250.5 "/>
<text text-anchor="middle" x="667.5" y="-235.3" font-family="monospace" font-size="14.00">E</text>
<polyline fill="none" stroke="black" points="680,-227.5 680,-250.5 "/>
<text text-anchor="middle" x="692.5" y="-235.3" font-family="monospace" font-size="14.00">F</text>
</g>
<!-- 40 -->
<g id="node2" class="node">
<title>40</title>
<polygon fill="none" stroke="black" points="0,-108.5 0,-154.5 400,-154.5 400,-108.5 0,-108.5"/>
<text text-anchor="middle" x="200" y="-139.3" font-family="monospace" font-size="14.00">00000000a0000050 / 0</text>
<polyline fill="none" stroke="black" points="0,-131.5 400,-131.5 "/>
<text text-anchor="middle" x="12.5" y="-116.3" font-family="monospace" font-size="14.00">0</text>
<polyline fill="none" stroke="black" points="25,-108.5 25,-131.5 "/>
<text text-anchor="middle" x="37.5" y="-116.3" font-family="monospace" font-size="14.00">1</text>
<polyline fill="none" stroke="black" points="50,-108.5 50,-131.5 "/>
<text text-anchor="middle" x="62.5" y="-116.3" font-family="monospace" font-size="14.00">2</text>
<polyline fill="none" stroke="black" points="75,-108.5 75,-131.5 "/>
<text text-anchor="middle" x="87.5" y="-116.3" font-family="monospace" font-size="14.00">3</text>
<polyline fill="none" stroke="black" points="100,-108.5 100,-131.5 "/>
<text text-anchor="middle" x="112.5" y="-116.3" font-family="monospace" font-size="14.00">4</text>
<polyline fill="none" stroke="black" points="125,-108.5 125,-131.5 "/>
<text text-anchor="middle" x="137.5" y="-116.3" font-family="monospace" font-size="14.00">5</text>
<polyline fill="none" stroke="black" points="150,-108.5 150,-131.5 "/>
<text text-anchor="middle" x="162.5" y="-116.3" font-family="monospace" font-size="14.00">6</text>
<polyline fill="none" stroke="black" points="175,-108.5 175,-131.5 "/>
<text text-anchor="middle" x="187.5" y="-116.3" font-family="monospace" font-size="14.00">7</text>
<polyline fill="none" stroke="black" points="200,-108.5 200,-131.5 "/>
<text text-anchor="middle" x="212.5" y="-116.3" font-family="monospace" font-size="14.00">8</text>
<polyline fill="none" stroke="black" points="225,-108.5 225,-131.5 "/>
<text text-anchor="middle" x="237.5" y="-116.3" font-family="monospace" font-size="14.00">9</text>
<polyline fill="none" stroke="black" points="250,-108.5 250,-131.5 "/>
<text text-anchor="middle" x="262.5" y="-116.3" font-family="monospace" font-size="14.00">A</text>
<polyline fill="none" stroke="black" points="275,-108.5 275,-131.5 "/>
<text text-anchor="middle" x="287.5" y="-116.3" font-family="monospace" font-size="14.00">B</text>
<polyline fill="none" stroke="black" points="300,-108.5 300,-131.5 "/>
<text text-anchor="middle" x="312.5" y="-116.3" font-family="monospace" font-size="14.00">C</text>
<polyline fill="none" stroke="black" points="325,-108.5 325,-131.5 "/>
<text text-anchor="middle" x="337.5" y="-116.3" font-family="monospace" font-size="14.00">D</text>
<polyline fill="none" stroke="black" points="350,-108.5 350,-131.5 "/>
<text text-anchor="middle" x="362.5" y="-116.3" font-family="monospace" font-size="14.00">E</text>
<polyline fill="none" stroke="black" points="375,-108.5 375,-131.5 "/>
<text text-anchor="middle" x="387.5" y="-116.3" font-family="monospace" font-size="14.00">F</text>
</g>
<!-- 80&#45;&gt;40 -->
<g id="edge1" class="edge">
<title>80:s&#45;&gt;40:n</title>
<path fill="none" stroke="black" d="M317,-227C317,-169.76 214.17,-210.23 201.31,-165.2"/>
<polygon fill="black" stroke="black" points="204.75,-164.47 200,-155 197.81,-165.37 204.75,-164.47"/>
</g>
<!-- c0 -->
<g id="node3" class="node">
<title>c0</title>
<polygon fill="none" stroke="black" points="436,-108.5 436,-154.5 836,-154.5 836,-108.5 436,-108.5"/>
<text text-anchor="middle" x="636" y="-139.3" font-family="monospace" font-size="14.00">00000000a0008000 / 0</text>
<polyline fill="none" stroke="black" points="436,-131.5 836,-131.5 "/>
<text text-anchor="middle" x="448.5" y="-116.3" font-family="monospace" font-size="14.00">0</text>
<polyline fill="none" stroke="black" points="461,-108.5 461,-131.5 "/>
<text text-anchor="middle" x="473.5" y="-116.3" font-family="monospace" font-size="14.00">1</text>
<polyline fill="none" stroke="black" points="486,-108.5 486,-131.5 "/>
<text text-anchor="middle" x="498.5" y="-116.3" font-family="monospace" font-size="14.00">2</text>
<polyline fill="none" stroke="black" points="511,-108.5 511,-131.5 "/>
<text text-anchor="middle" x="523.5" y="-116.3" font-family="monospace" font-size="14.00">3</text>
<polyline fill="none" stroke="black" points="536,-108.5 536,-131.5 "/>
<text text-anchor="middle" x="548.5" y="-116.3" font-family="monospace" font-size="14.00">4</text>
<polyline fill="none" stroke="black" points="561,-108.5 561,-131.5 "/>
<text text-anchor="middle" x="573.5" y="-116.3" font-family="monospace" font-size="14.00">5</text>
<polyline fill="none" stroke="black" points="586,-108.5 586,-131.5 "/>
<text text-anchor="middle" x="598.5" y="-116.3" font-family="monospace" font-size="14.00">6</text>
<polyline fill="none" stroke="black" points="611,-108.5 611,-131.5 "/>
<text text-anchor="middle" x="623.5" y="-116.3" font-family="monospace" font-size="14.00">7</text>
<polyline fill="none" stroke="black" points="636,-108.5 636,-131.5 "/>
<text text-anchor="middle" x="648.5" y="-116.3" font-family="monospace" font-size="14.00">8</text>
<polyline fill="none" stroke="black" points="661,-108.5 661,-131.5 "/>
<text text-anchor="middle" x="673.5" y="-116.3" font-family="monospace" font-size="14.00">9</text>
<polyline fill="none" stroke="black" points="686,-108.5 686,-131.5 "/>
<text text-anchor="middle" x="698.5" y="-116.3" font-family="monospace" font-size="14.00">A</text>
<polyline fill="none" stroke="black" points="711,-108.5 711,-131.5 "/>
<text text-anchor="middle" x="723.5" y="-116.3" font-family="monospace" font-size="14.00">B</text>
<polyline fill="none" stroke="black" points="736,-108.5 736,-131.5 "/>
<text text-anchor="middle" x="748.5" y="-116.3" font-family="monospace" font-size="14.00">C</text>
<polyline fill="none" stroke="black" points="761,-108.5 761,-131.5 "/>
<text text-anchor="middle" x="773.5" y="-116.3" font-family="monospace" font-size="14.00">D</text>
<polyline fill="none" stroke="black" points="786,-108.5 786,-131.5 "/>
<text text-anchor="middle" x="798.5" y="-116.3" font-family="monospace" font-size="14.00">E</text>
<polyline fill="none" stroke="black" points="811,-108.5 811,-131.5 "/>
<text text-anchor="middle" x="823.5" y="-116.3" font-family="monospace" font-size="14.00">F</text>
</g>
<!-- 80&#45;&gt;c0 -->
<g id="edge2" class="edge">
<title>80:s&#45;&gt;c0:n</title>
<path fill="none" stroke="black" d="M518,-227C518,-169.28 622.14,-210.69 634.75,-164.97"/>
<polygon fill="black" stroke="black" points="638.23,-165.36 636,-155 631.29,-164.49 638.23,-165.36"/>
</g>
<!-- 56 -->
<g id="node4" class="node">
<title>56</title>
<ellipse fill="none" stroke="black" cx="130" cy="-18" rx="27" ry="18"/>
<text text-anchor="middle" x="130" y="-14.3" font-family="monospace" font-size="14.00">56</text>
</g>
<!-- 40&#45;&gt;56 -->
<g id="edge3" class="edge">
<title>40:s&#45;&gt;56:n</title>
<path fill="none" stroke="black" d="M162,-108C162,-76.68 136.39,-71.8 130.99,-46.05"/>
<polygon fill="black" stroke="black" points="134.47,-45.61 130,-36 127.5,-46.3 134.47,-45.61"/>
</g>
<!-- 57 -->
<g id="node5" class="node">
<title>57</title>
<ellipse fill="none" stroke="red" stroke-width="2" stroke-dasharray="5,2" cx="220" cy="-18" rx="27" ry="18"/>
<text text-anchor="middle" x="220" y="-14.3" font-family="monospace" font-size="14.00">57</text>
</g>
<!-- 40&#45;&gt;57 -->
<g id="edge4" class="edge">
<title>40:s&#45;&gt;57:n</title>
<path fill="none" stroke="red" stroke-width="2" stroke-dasharray="5,2" d="M187,-108C187,-76.51 213.41,-71.91 218.98,-46.1"/>
<polygon fill="red" stroke="red" stroke-width="2" points="222.47,-46.3 220,-36 215.51,-45.6 222.47,-46.3"/>
</g>
<!-- 8009 -->
<g id="node6" class="node">
<title>8009</title>
<ellipse fill="none" stroke="black" cx="674" cy="-18" rx="32.49" ry="18"/>
<text text-anchor="middle" x="674" y="-14.3" font-family="monospace" font-size="14.00">8009</text>
</g>
<!-- c0&#45;&gt;8009 -->
<g id="edge5" class="edge">
<title>c0:s&#45;&gt;8009:n</title>
<path fill="none" stroke="black" d="M674,-108C674,-79.62 674,-70.12 674,-46.02"/>
<polygon fill="black" stroke="black" points="677.5,-46 674,-36 670.5,-46 677.5,-46"/>
</g>
</g>
</svg>
