<?xml version="1.0" encoding="UTF-8" standalone="no"?>
<!DOCTYPE svg PUBLIC "-//W3C//DTD SVG 1.1//EN"
 "http://www.w3.org/Graphics/SVG/1.1/DTD/svg11.dtd">
<!-- Generated by graphviz version 2.43.0 (0)
 -->
<!-- Title: %3 Pages: 1 -->
<svg width="1094pt" height="401pt"
 viewBox="0.00 0.00 1094.00 401.00" xmlns="http://www.w3.org/2000/svg" xmlns:xlink="http://www.w3.org/1999/xlink">
<g id="graph0" class="graph" transform="scale(1 1) rotate(0) translate(4 397)">
<title>%3</title>
<polygon fill="white" stroke="transparent" points="-4,4 -4,-397 1090,-397 1090,4 -4,4"/>
<!-- 80 -->
<g id="node1" class="node">
<title>80</title>
<polygon fill="none" stroke="black" points="306,-346.5 306,-392.5 706,-392.5 706,-346.5 306,-346.5"/>
<text text-anchor="middle" x="506" y="-377.3" font-family="monospace" font-size="14.00">00000000a0000000 / 3</text>
<polyline fill="none" stroke="black" points="306,-369.5 706,-369.5 "/>
<text text-anchor="middle" x="318.5" y="-354.3" font-family="monospace" font-size="14.00">0</text>
<polyline fill="none" stroke="black" points="331,-346.5 331,-369.5 "/>
<text text-anchor="middle" x="343.5" y="-354.3" font-family="monospace" font-size="14.00">1</text>
<polyline fill="none" stroke="black" points="356,-346.5 356,-369.5 "/>
<text text-anchor="middle" x="368.5" y="-354.3" font-family="monospace" font-size="14.00">2</text>
<polyline fill="none" stroke="black" points="381,-346.5 381,-369.5 "/>
<text text-anchor="middle" x="393.5" y="-354.3" font-family="monospace" font-size="14.00">3</text>
<polyline fill="none" stroke="black" points="406,-346.5 406,-369.5 "/>
<text text-anchor="middle" x="418.5" y="-354.3" font-family="monospace" font-size="14.00">4</text>
<polyline fill="none" stroke="black" points="431,-346.5 431,-369.5 "/>
<text text-anchor="middle" x="443.5" y="-354.3" font-family="monospace" font-size="14.00">5</text>
<polyline fill="none" stroke="black" points="456,-346.5 456,-369.5 "/>
<text text-anchor="middle" x="468.5" y="-354.3" font-family="monospace" font-size="14.00">6</text>
<polyline fill="none" stroke="black" points="481,-346.5 481,-369.5 "/>
<text text-anchor="middle" x="493.5" y="-354.3" font-family="monospace" font-size="14.00">7</text>
<polyline fill="none" stroke="black" points="506,-346.5 506,-369.5 "/>
<text text-anchor="middle" x="518.5" y="-354.3" font-family="monospace" font-size="14.00">8</text>
<polyline fill="none" stroke="black" points="531,-346.5 531,-369.5 "/>
<text text-anchor="middle" x="543.5" y="-354.3" font-family="monospace" font-size="14.00">9</text>
<polyline fill="none" stroke="black" points="556,-346.5 556,-369.5 "/>
<text text-anchor="middle" x="568.5" y="-354.3" font-family="monospace" font-size="14.00">A</text>
<polyline fill="none" stroke="black" points="581,-346.5 581,-369.5 "/>
<text text-anchor="middle" x="593.5" y="-354.3" font-family="monospace" font-size="14.00">B</text>
<polyline fill="none" stroke="black" points="606,-346.5 606,-369.5 "/>
<text text-anchor="middle" x="618.5" y="-354.3" font-family="monospace" font-size="14.00">C</text>
<polyline fill="none" stroke="black" points="631,-346.5 631,-369.5 "/>
<text text-anchor="middle" x="643.5" y="-354.3" font-family="monospace" font-size="14.00">D</text>
<polyline fill="none" stroke="black" points="656,-346.5 656,-369.5 "/>
<text text-anchor="middle" x="668.5" y="-354.3" font-family="monospace" font-size="14.00">E</text>
<polyline fill="none" stroke="black" points="681,-346.5 681,-369.5 "/>
<text text-anchor="middle" x="693.5" y="-354.3" font-family="monospace" font-size="14.00">F</text>
</g>
<!-- 40 -->
<g id="node2" class="node">
<title>40</title>
<polygon fill="none" stroke="black" points="0,-227.5 0,-273.5 400,-273.5 400,-227.5 0,-227.5"/>
<text text-anchor="middle" x="200" y="-258.3" font-family="monospace" font-size="14.00">00000000a0000050 / 0</text>
<polyline fill="none" stroke="black" points="0,-250.5 400,-250.5 "/>
<text text-anchor="middle" x="12.5" y="-235.3" font-family="monospace" font-size="14.00">0</text>
<polyline fill="none" stroke="black" points="25,-227.5 25,-250.5 "/>
<text text-anchor="middle" x="37.5" y="-235.3" font-family="monospace" font-size="14.00">1</text>
<polyline fill="none" stroke="black" points="50,-227.5 50,-250.5 "/>
<text text-anchor="middle" x="62.5" y="-235.3" font-family="monospace" font-size="14.00">2</text>
<polyline fill="none" stroke="black" points="75,-227.5 75,-250.5 "/>
<text text-anchor="middle" x="87.5" y="-235.3" font-family="monospace" font-size="14.00">3</text>
<polyline fill="none" stroke="black" points="100,-227.5 100,-250.5 "/>
<text text-anchor="middle" x="112.5" y="-235.3" font-family="monospace" font-size="14.00">4</text>
<polyline fill="none" stroke="black" points="125,-227.5 125,-250.5 "/>
<text text-anchor="middle" x="137.5" y="-235.3" font-family="monospace" font-size="14.00">5</text>
<polyline fill="none" stroke="black" points="150,-227.5 150,-250.5 "/>
<text text-anchor="middle" x="162.5" y="-235.3" font-family="monospace" font-size="14.00">6</text>
<polyline fill="none" stroke="black" points="175,-227.5 175,-250.5 "/>
<text text-anchor="middle" x="187.5" y="-235.3" font-family="monospace" font-size="14.00">7</text>
<polyline fill="none" stroke="black" points="200,-227.5 200,-250.5 "/>
<text text-anchor="middle" x="212.5" y="-235.3" font-family="monospace" font-size="14.00">8</text>
<polyline fill="none" stroke="black" points="225,-227.5 225,-250.5 "/>
<text text-anchor="middle" x="237.5" y="-235.3" font-family="monospace" font-size="14.00">9</text>
<polyline fill="none" stroke="black" points="250,-227.5 250,-250.5 "/>
<text text-anchor="middle" x="262.5" y="-235.3" font-family="monospace" font-size="14.00">A</text>
<polyline fill="none" stroke="black" points="275,-227.5 275,-250.5 "/>
<text text-anchor="middle" x="287.5" y="-235.3" font-family="monospace" font-size="14.00">B</text>
<polyline fill="none" stroke="black" points="300,-227.5 300,-250.5 "/>
<text text-anchor="middle" x="312.5" y="-235.3" font-family="monospace" font-size="14.00">C</text>
<polyline fill="none" stroke="black" points="325,-227.5 325,-250.5 "/>
<text text-anchor="middle" x="337.5" y="-235.3" font-family="monospace" font-size="14.00">D</text>
<polyline fill="none" stroke="black" points="350,-227.5 350,-250.5 "/>
<text text-anchor="middle" x="362.5" y="-235.3" font-family="monospace" font-size="14.00">E</text>
<polyline fill="none" stroke="black" points="375,-227.5 375,-250.5 "/>
<text text-anchor="middle" x="387.5" y="-235.3" font-family="monospace" font-size="14.00">F</text>
</g>
<!-- 80&#45;&gt;40 -->
<g id="edge1" class="edge">
<title>80:s&#45;&gt;40:n</title>
<path fill="none" stroke="black" d="M318,-346C318,-288.28 213.86,-329.69 201.25,-283.97"/>
<polygon fill="black" stroke="black" points="204.71,-283.49 200,-274 197.77,-284.36 204.71,-283.49"/>
</g>
<!-- 100 -->
<g id="node3" class="node">
<title>100</title>
<polygon fill="none" stroke="red" stroke-width="2" stroke-dasharray="5,2" points="438,-227.5 438,-273.5 838,-273.5 838,-227.5 438,-227.5"/>
<text text-anchor="middle" x="638" y="-258.3" font-family="monospace" font-size="14.00">00000000a0008000 / 1</text>
<polyline fill="none" stroke="red" stroke-width="2" stroke-dasharray="5,2" points="438,-250.5 838,-250.5 "/>
<text text-anchor="middle" x="450.5" y="-235.3" font-family="monospace" font-size="14.00">0</text>
<polyline fill="none" stroke="red" stroke-width="2" stroke-dasharray="5,2" points="463,-227.5 463,-250.5 "/>
<text text-anchor="middle" x="475.5" y="-235.3" font-family="monospace" font-size="14.00">1</text>
<polyline fill="none" stroke="red" stroke-width="2" stroke-dasharray="5,2" points="488,-227.5 488,-250.5 "/>
<text text-anchor="middle" x="500.5" y="-235.3" font-family="monospace" font-size="14.00">2</text>
<polyline fill="none" stroke="red" stroke-width="2" stroke-dasharray="5,2" points="513,-227.5 513,-250.5 "/>
<text text-anchor="middle" x="525.5" y="-235.3" font-family="monospace" font-size="14.00">3</text>
<polyline fill="none" stroke="red" stroke-width="2" stroke-dasharray="5,2" points="538,-227.5 538,-250.5 "/>
<text text-anchor="middle" x="550.5" y="-235.3" font-family="monospace" font-size="14.00">4</text>
<polyline fill="none" stroke="red" stroke-width="2" stroke-dasharray="5,2" points="563,-227.5 563,-250.5 "/>
<text text-anchor="middle" x="575.5" y="-235.3" font-family="monospace" font-size="14.00">5</text>
<polyline fill="none" stroke="red" stroke-width="2" stroke-dasharray="5,2" points="588,-227.5 588,-250.5 "/>
<text text-anchor="middle" x="600.5" y="-235.3" font-family="monospace" font-size="14.00">6</text>
<polyline fill="none" stroke="red" stroke-width="2" stroke-dasharray="5,2" points="613,-227.5 613,-250.5 "/>
<text text-anchor="middle" x="625.5" y="-235.3" font-family="monospace" font-size="14.00">7</text>
<polyline fill="none" stroke="red" stroke-width="2" stroke-dasharray="5,2" points="638,-227.5 638,-250.5 "/>
<text text-anchor="middle" x="650.5" y="-235.3" font-family="monospace" font-size="14.00">8</text>
<polyline fill="none" stroke="red" stroke-width="2" stroke-dasharray="5,2" points="663,-227.5 663,-250.5 "/>
<text text-anchor="middle" x="675.5" y="-235.3" font-family="monospace" font-size="14.00">9</text>
<polyline fill="none" stroke="red" stroke-width="2" stroke-dasharray="5,2" points="688,-227.5 688,-250.5 "/>
<text text-anchor="middle" x="700.5" y="-235.3" font-family="monospace" font-size="14.00">A</text>
<polyline fill="none" stroke="red" stroke-width="2" stroke-dasharray="5,2" points="713,-227.5 713,-250.5 "/>
<text text-anchor="middle" x="725.5" y="-235.3" font-family="monospace" font-size="14.00">B</text>
<polyline fill="none" stroke="red" stroke-width="2" stroke-dasharray="5,2" points="738,-227.5 738,-250.5 "/>
<text text-anchor="middle" x="750.5" y="-235.3" font-family="monospace" font-size="14.00">C</text>
<polyline fill="none" stroke="red" stroke-width="2" stroke-dasharray="5,2" points="763,-227.5 763,-250.5 "/>
<text text-anchor="middle" x="775.5" y="-235.3" font-family="monospace" font-size="14.00">D</text>
<polyline fill="none" stroke="red" stroke-width="2" stroke-dasharray="5,2" points="788,-227.5 788,-250.5 "/>
<text text-anchor="middle" x="800.5" y="-235.3" font-family="monospace" font-size="14.00">E</text>
<polyline fill="none" stroke="red" stroke-width="2" stroke-dasharray="5,2" points="813,-227.5 813,-250.5 "/>
<text text-anchor="middle" x="825.5" y="-235.3" font-family="monospace" font-size="14.00">F</text>
</g>
<!-- 80&#45;&gt;100 -->
<g id="edge2" class="edge">
<title>80:s&#45;&gt;100:n</title>
<path fill="none" stroke="red" stroke-width="2" stroke-dasharray="5,2" d="M519,-346C519,-287.93 624.03,-329.98 636.74,-284.03"/>
<polygon fill="red" stroke="red" stroke-width="2" points="640.23,-284.36 638,-274 633.28,-283.49 640.23,-284.36"/>
</g>
<!-- 56 -->
<g id="node4" class="node">
<title>56</title>
<ellipse fill="none" stroke="black" cx="97" cy="-131.5" rx="27" ry="18"/>
<text text-anchor="middle" x="97" y="-127.8" font-family="monospace" font-size="14.00">56</text>
</g>
<!-- 40&#45;&gt;56 -->
<g id="edge3" class="edge">
<title>40:s&#45;&gt;56:n</title>
<path fill="none" stroke="black" d="M162,-227C162,-186.22 107.69,-193.35 98.36,-160.8"/>
<polygon fill="black" stroke="black" points="101.78,-159.96 97,-150.5 94.84,-160.87 101.78,-159.96"/>
</g>
<!-- 57 -->
<g id="node5" class="node">
<title>57</title>
<ellipse fill="none" stroke="black" cx="187" cy="-131.5" rx="27" ry="18"/>
<text text-anchor="middle" x="187" y="-127.8" font-family="monospace" font-size="14.00">57</text>
</g>
<!-- 40&#45;&gt;57 -->
<g id="edge4" class="edge">
<title>40:s&#45;&gt;57:n</title>
<path fill="none" stroke="black" d="M187,-227C187,-196.72 187,-186.66 187,-160.81"/>
<polygon fill="black" stroke="black" points="190.5,-160.5 187,-150.5 183.5,-160.5 190.5,-160.5"/>
</g>
<!-- c0 -->
<g id="node6" class="node">
<title>c0</title>
<polygon fill="none" stroke="black" points="250,-108.5 250,-154.5 650,-154.5 650,-108.5 250,-108.5"/>
<text text-anchor="middle" x="450" y="-139.3" font-family="monospace" font-size="14.00">00000000a0008000 / 0</text>
<polyline fill="none" stroke="black" points="250,-131.5 650,-131.5 "/>
<text text-anchor="middle" x="262.5" y="-116.3" font-family="monospace" font-size="14.00">0</text>
<polyline fill="none" stroke="black" points="275,-108.5 275,-131.5 "/>
<text text-anchor="middle" x="287.5" y="-116.3" font-family="monospace" font-size="14.00">1</text>
<polyline fill="none" stroke="black" points="300,-108.5 300,-131.5 "/>
<text text-anchor="middle" x="312.5" y="-116.3" font-family="monospace" font-size="14.00">2</text>
<polyline fill="none" stroke="black" points="325,-108.5 325,-131.5 "/>
<text text-anchor="middle" x="337.5" y="-116.3" font-family="monospace" font-size="14.00">3</text>
<polyline fill="none" stroke="black" points="350,-108.5 350,-131.5 "/>
<text text-anchor="middle" x="362.5" y="-116.3" font-family="monospace" font-size="14.00">4</text>
<polyline fill="none" stroke="black" points="375,-108.5 375,-131.5 "/>
<text text-anchor="middle" x="387.5" y="-116.3" font-family="monospace" font-size="14.00">5</text>
<polyline fill="none" stroke="black" points="400,-108.5 400,-131.5 "/>
<text text-anchor="middle" x="412.5" y="-116.3" font-family="monospace" font-size="14.00">6</text>
<polyline fill="none" stroke="black" points="425,-108.5 425,-131.5 "/>
<text text-anchor="middle" x="437.5" y="-116.3" font-family="monospace" font-size="14.00">7</text>
<polyline fill="none" stroke="black" points="450,-108.5 450,-131.5 "/>
<text text-anchor="middle" x="462.5" y="-116.3" font-family="monospace" font-size="14.00">8</text>
<polyline fill="none" stroke="black" points="475,-108.5 475,-131.5 "/>
<text text-anchor="middle" x="487.5" y="-116.3" font-family="monospace" font-size="14.00">9</text>
<polyline fill="none" stroke="black" points="500,-108.5 500,-131.5 "/>
<text text-anchor="middle" x="512.5" y="-116.3" font-family="monospace" font-size="14.00">A</text>
<polyline fill="none" stroke="black" points="525,-108.5 525,-131.5 "/>
<text text-anchor="middle" x="537.5" y="-116.3" font-family="monospace" font-size="14.00">B</text>
<polyline fill="none" stroke="black" points="550,-108.5 550,-131.5 "/>
<text text-anchor="middle" x="562.5" y="-116.3" font-family="monospace" font-size="14.00">C</text>
<polyline fill="none" stroke="black" points="575,-108.5 575,-131.5 "/>
<text text-anchor="middle" x="587.5" y="-116.3" font-family="monospace" font-size="14.00">D</text>
<polyline fill="none" stroke="black" points="600,-108.5 600,-131.5 "/>
<text text-anchor="middle" x="612.5" y="-116.3" font-family="monospace" font-size="14.00">E</text>
<polyline fill="none" stroke="black" points="625,-108.5 625,-131.5 "/>
<text text-anchor="middle" x="637.5" y="-116.3" font-family="monospace" font-size="14.00">F</text>
</g>
<!-- 100&#45;&gt;c0 -->
<g id="edge5" class="edge">
<title>100:s&#45;&gt;c0:n</title>
<path fill="none" stroke="red" stroke-width="2" stroke-dasharray="5,2" d="M450,-227C450,-198.62 450,-189.12 450,-165.02"/>
<polygon fill="red" stroke="red" stroke-width="2" points="453.5,-165 450,-155 446.5,-165 453.5,-165"/>
</g>
<!-- 140 -->
<g id="node7" class="node">
<title>140</title>
<polygon fill="none" stroke="red" stroke-width="2" stroke-dasharray="5,2" points="686,-108.5 686,-154.5 1086,-154.5 1086,-108.5 686,-108.5"/>
<text text-anchor="middle" x="886" y="-139.3" font-family="monospace" font-size="14.00">00000000a0008050 / 0</text>
<polyline fill="none" stroke="red" stroke-width="2" stroke-dasharray="5,2" points="686,-131.5 1086,-131.5 "/>
<text text-anchor="middle" x="698.5" y="-116.3" font-family="monospace" font-size="14.00">0</text>
<polyline fill="none" stroke="red" stroke-width="2" stroke-dasharray="5,2" points="711,-108.5 711,-131.5 "/>
<text text-anchor="middle" x="723.5" y="-116.3" font-family="monospace" font-size="14.00">1</text>
<polyline fill="none" stroke="red" stroke-width="2" stroke-dasharray="5,2" points="736,-108.5 736,-131.5 "/>
<text text-anchor="middle" x="748.5" y="-116.3" font-family="monospace" font-size="14.00">2</text>
<polyline fill="none" stroke="red" stroke-width="2" stroke-dasharray="5,2" points="761,-108.5 761,-131.5 "/>
<text text-anchor="middle" x="773.5" y="-116.3" font-family="monospace" font-size="14.00">3</text>
<polyline fill="none" stroke="red" stroke-width="2" stroke-dasharray="5,2" points="786,-108.5 786,-131.5 "/>
<text text-anchor="middle" x="798.5" y="-116.3" font-family="monospace" font-size="14.00">4</text>
<polyline fill="none" stroke="red" stroke-width="2" stroke-dasharray="5,2" points="811,-108.5 811,-131.5 "/>
<text text-anchor="middle" x="823.5" y="-116.3" font-family="monospace" font-size="14.00">5</text>
<polyline fill="none" stroke="red" stroke-width="2" stroke-dasharray="5,2" points="836,-108.5 836,-131.5 "/>
<text text-anchor="middle" x="848.5" y="-116.3" font-family="monospace" font-size="14.00">6</text>
<polyline fill="none" stroke="red" stroke-width="2" stroke-dasharray="5,2" points="861,-108.5 861,-131.5 "/>
<text text-anchor="middle" x="873.5" y="-116.3" font-family="monospace" font-size="14.00">7</text>
<polyline fill="none" stroke="red" stroke-width="2" stroke-dasharray="5,2" points="886,-108.5 886,-131.5 "/>
<text text-anchor="middle" x="898.5" y="-116.3" font-family="monospace" font-size="14.00">8</text>
<polyline fill="none" stroke="red" stroke-width="2" stroke-dasharray="5,2" points="911,-108.5 911,-131.5 "/>
<text text-anchor="middle" x="923.5" y="-116.3" font-family="monospace" font-size="14.00">9</text>
<polyline fill="none" stroke="red" stroke-width="2" stroke-dasharray="5,2" points="936,-108.5 936,-131.5 "/>
<text text-anchor="middle" x="948.5" y="-116.3" font-family="monospace" font-size="14.00">A</text>
<polyline fill="none" stroke="red" stroke-width="2" stroke-dasharray="5,2" points="961,-108.5 961,-131.5 "/>
<text text-anchor="middle" x="973.5" y="-116.3" font-family="monospace" font-size="14.00">B</text>
<polyline fill="none" stroke="red" stroke-width="2" stroke-dasharray="5,2" points="986,-108.5 986,-131.5 "/>
<text text-anchor="middle" x="998.5" y="-116.3" font-family="monospace" font-size="14.00">C</text>
<polyline fill="none" stroke="red" stroke-width="2" stroke-dasharray="5,2" points="1011,-108.5 1011,-131.5 "/>
<text text-anchor="middle" x="1023.5" y="-116.3" font-family="monospace" font-size="14.00">D</text>
<polyline fill="none" stroke="red" stroke-width="2" stroke-dasharray="5,2" points="1036,-108.5 1036,-131.5 "/>
<text text-anchor="middle" x="1048.5" y="-116.3" font-family="monospace" font-size="14.00">E</text>
<polyline fill="none" stroke="red" stroke-width="2" stroke-dasharray="5,2" points="1061,-108.5 1061,-131.5 "/>
<text text-anchor="middle" x="1073.5" y="-116.3" font-family="monospace" font-size="14.00">F</text>
</g>
<!-- 100&#45;&gt;140 -->
<g id="edge6" class="edge">
<title>100:s&#45;&gt;140:n</title>
<path fill="none" stroke="red" stroke-width="2" stroke-dasharray="5,2" d="M575,-227C575,-88.72 870.41,-286.35 885.41,-165.13"/>
<polygon fill="red" stroke="red" stroke-width="2" points="888.91,-165.19 886,-155 881.92,-164.78 888.91,-165.19"/>
</g>
<!-- 8009 -->
<g id="node8" class="node">
<title>8009</title>
<ellipse fill="none" stroke="black" cx="488" cy="-18" rx="32.49" ry="18"/>
<text text-anchor="middle" x="488" y="-14.3" font-family="monospace" font-size="14.00">8009</text>
</g>
<!-- c0&#45;&gt;8009 -->
<g id="edge7" class="edge">
<title>c0:s&#45;&gt;8009:n</title>
<path fill="none" stroke="black" d="M488,-108C488,-79.62 488,-70.12 488,-46.02"/>
<polygon fill="black" stroke="black" points="491.5,-46 488,-36 484.5,-46 491.5,-46"/>
</g>
<!-- 8059 -->
<g id="node9" class="node">
<title>8059</title>
<ellipse fill="none" stroke="red" stroke-width="2" stroke-dasharray="5,2" cx="924" cy="-18" rx="32.49" ry="18"/>
<text text-anchor="middle" x="924" y="-14.3" font-family="monospace" font-size="14.00">8059</text>
</g>
<!-- 140&#45;&gt;8059 -->
<g id="edge8" class="edge">
<title>140:s&#45;&gt;8059:n</title>
<path fill="none" stroke="red" stroke-width="2" stroke-dasharray="5,2" d="M924,-108C924,-79.62 924,-70.12 924,-46.02"/>
<polygon fill="red" stroke="red" stroke-width="2" points="927.5,-46 924,-36 920.5,-46 927.5,-46"/>
</g>
</g>
</svg>
