<?xml version="1.0" encoding="UTF-8" standalone="no"?>
<!DOCTYPE svg PUBLIC "-//W3C//DTD SVG 1.1//EN"
 "http://www.w3.org/Graphics/SVG/1.1/DTD/svg11.dtd">
<!-- Generated by graphviz version 2.43.0 (0)
 -->
<!-- Title: %3 Pages: 1 -->
<svg width="1530pt" height="401pt"
 viewBox="0.00 0.00 1530.00 401.00" xmlns="http://www.w3.org/2000/svg" xmlns:xlink="http://www.w3.org/1999/xlink">
<g id="graph0" class="graph" transform="scale(1 1) rotate(0) translate(4 397)">
<title>%3</title>
<polygon fill="white" stroke="transparent" points="-4,4 -4,-397 1526,-397 1526,4 -4,4"/>
<!-- 80 -->
<g id="node1" class="node">
<title>80</title>
<polygon fill="none" stroke="black" points="306,-346.5 306,-392.5 706,-392.5 706,-346.5 306,-346.5"/>
<text text-anchor="middle" x="506" y="-377.3" font-family="monospace" font-size="14.00">00000000a0000000 / 3</text>
<polyline fill="none" stroke="black" points="306,-369.5 706,-369.5 "/>
<text text-anchor="middle" x="318.5" y="-354.3" font-family="monospace" font-size="14.00">0</text>
<polyline fill="none" stroke="black" points="331,-346.5 331,-369.5 "/>
<text text-anchor="middle" x="343.5" y="-354.3" font-family="monospace" font-size="14.00">1</text>
<polyline fill="none" stroke="black" points="356,-346.5 356,-369.5 "/>
<text text-anchor="middle" x="368.5" y="-354.3" font-family="monospace" font-size="14.00">2</text>
<polyline fill="none" stroke="black" points="381,-346.5 381,-369.5 "/>
<text text-anchor="middle" x="393.5" y="-354.3" font-family="monospace" font-size="14.00">3</text>
<polyline fill="none" stroke="black" points="406,-346.5 406,-369.5 "/>
<text text-anchor="middle" x="418.5" y="-354.3" font-family="monospace" font-size="14.00">4</text>
<polyline fill="none" stroke="black" points="431,-346.5 431,-369.5 "/>
<text text-anchor="middle" x="443.5" y="-354.3" font-family="monospace" font-size="14.00">5</text>
<polyline fill="none" stroke="black" points="456,-346.5 456,-369.5 "/>
<text text-anchor="middle" x="468.5" y="-354.3" font-family="monospace" font-size="14.00">6</text>
<polyline fill="none" stroke="black" points="481,-346.5 481,-369.5 "/>
<text text-anchor="middle" x="493.5" y="-354.3" font-family="monospace" font-size="14.00">7</text>
<polyline fill="none" stroke="black" points="506,-346.5 506,-369.5 "/>
<text text-anchor="middle" x="518.5" y="-354.3" font-family="monospace" font-size="14.00">8</text>
<polyline fill="none" stroke="black" points="531,-346.5 531,-369.5 "/>
<text text-anchor="middle" x="543.5" y="-354.3" font-family="monospace" font-size="14.00">9</text>
<polyline fill="none" stroke="black" points="556,-346.5 556,-369.5 "/>
<text text-anchor="middle" x="568.5" y="-354.3" font-family="monospace" font-size="14.00">A</text>
<polyline fill="none" stroke="black" points="581,-346.5 581,-369.5 "/>
<text text-anchor="middle" x="593.5" y="-354.3" font-family="monospace" font-size="14.00">B</text>
<polyline fill="none" stroke="black" points="606,-346.5 606,-369.5 "/>
<text text-anchor="middle" x="618.5" y="-354.3" font-family="monospace" font-size="14.00">C</text>
<polyline fill="none" stroke="black" points="631,-346.5 631,-369.5 "/>
<text text-anchor="middle" x="643.5" y="-354.3" font-family="monospace" font-size="14.00">D</text>
<polyline fill="none" stroke="black" points="656,-346.5 656,-369.5 "/>
<text text-anchor="middle" x="668.5" y="-354.3" font-family="monospace" font-size="14.00">E</text>
<polyline fill="none" stroke="black" points="681,-346.5 681,-369.5 "/>
<text text-anchor="middle" x="693.5" y="-354.3" font-family="monospace" font-size="14.00">F</text>
</g>
<!-- 40 -->
<g id="node2" class="node">
<title>40</title>
<polygon fill="none" stroke="black" points="0,-227.5 0,-273.5 400,-273.5 400,-227.5 0,-227.5"/>
<text text-anchor="middle" x="200" y="-258.3" font-family="monospace" font-size="14.00">00000000a0000050 / 0</text>
<polyline fill="none" stroke="black" points="0,-250.5 400,-250.5 "/>
<text text-anchor="middle" x="12.5" y="-235.3" font-family="monospace" font-size="14.00">0</text>
<polyline fill="none" stroke="black" points="25,-227.5 25,-250.5 "/>
<text text-anchor="middle" x="37.5" y="-235.3" font-family="monospace" font-size="14.00">1</text>
<polyline fill="none" stroke="black" points="50,-227.5 50,-250.5 "/>
<text text-anchor="middle" x="62.5" y="-235.3" font-family="monospace" font-size="14.00">2</text>
<polyline fill="none" stroke="black" points="75,-227.5 75,-250.5 "/>
<text text-anchor="middle" x="87.5" y="-235.3" font-family="monospace" font-size="14.00">3</text>
<polyline fill="none" stroke="black" points="100,-227.5 100,-250.5 "/>
<text text-anchor="middle" x="112.5" y="-235.3" font-family="monospace" font-size="14.00">4</text>
<polyline fill="none" stroke="black" points="125,-227.5 125,-250.5 "/>
<text text-anchor="middle" x="137.5" y="-235.3" font-family="monospace" font-size="14.00">5</text>
<polyline fill="none" stroke="black" points="150,-227.5 150,-250.5 "/>
<text text-anchor="middle" x="162.5" y="-235.3" font-family="monospace" font-size="14.00">6</text>
<polyline fill="none" stroke="black" points="175,-227.5 175,-250.5 "/>
<text text-anchor="middle" x="187.5" y="-235.3" font-family="monospace" font-size="14.00">7</text>
<polyline fill="none" stroke="black" points="200,-227.5 200,-250.5 "/>
<text text-anchor="middle" x="212.5" y="-235.3" font-family="monospace" font-size="14.00">8</text>
<polyline fill="none" stroke="black" points="225,-227.5 225,-250.5 "/>
<text text-anchor="middle" x="237.5" y="-235.3" font-family="monospace" font-size="14.00">9</text>
<polyline fill="none" stroke="black" points="250,-227.5 250,-250.5 "/>
<text text-anchor="middle" x="262.5" y="-235.3" font-family="monospace" font-size="14.00">A</text>
<polyline fill="none" stroke="black" points="275,-227.5 275,-250.5 "/>
<text text-anchor="middle" x="287.5" y="-235.3" font-family="monospace" font-size="14.00">B</text>
<polyline fill="none" stroke="black" points="300,-227.5 300,-250.5 "/>
<text text-anchor="middle" x="312.5" y="-235.3" font-family="monospace" font-size="14.00">C</text>
<polyline fill="none" stroke="black" points="325,-227.5 325,-250.5 "/>
<text text-anchor="middle" x="337.5" y="-235.3" font-family="monospace" font-size="14.00">D</text>
<polyline fill="none" stroke="black" points="350,-227.5 350,-250.5 "/>
<text text-anchor="middle" x="362.5" y="-235.3" font-family="monospace" font-size="14.00">E</text>
<polyline fill="none" stroke="black" points="375,-227.5 375,-250.5 "/>
<text text-anchor="middle" x="387.5" y="-235.3" font-family="monospace" font-size="14.00">F</text>
</g>
<!-- 80&#45;&gt;40 -->
<g id="edge1" class="edge">
<title>80:s&#45;&gt;40:n</title>
<path fill="none" stroke="black" d="M318,-346C318,-288.28 213.86,-329.69 201.25,-283.97"/>
<polygon fill="black" stroke="black" points="204.71,-283.49 200,-274 197.77,-284.36 204.71,-283.49"/>
</g>
<!-- 100 -->
<g id="node3" class="node">
<title>100</title>
<polygon fill="none" stroke="black" points="593,-227.5 593,-273.5 993,-273.5 993,-227.5 593,-227.5"/>
<text text-anchor="middle" x="793" y="-258.3" font-family="monospace" font-size="14.00">00000000a0008000 / 1</text>
<polyline fill="none" stroke="black" points="593,-250.5 993,-250.5 "/>
<text text-anchor="middle" x="605.5" y="-235.3" font-family="monospace" font-size="14.00">0</text>
<polyline fill="none" stroke="black" points="618,-227.5 618,-250.5 "/>
<text text-anchor="middle" x="630.5" y="-235.3" font-family="monospace" font-size="14.00">1</text>
<polyline fill="none" stroke="black" points="643,-227.5 643,-250.5 "/>
<text text-anchor="middle" x="655.5" y="-235.3" font-family="monospace" font-size="14.00">2</text>
<polyline fill="none" stroke="black" points="668,-227.5 668,-250.5 "/>
<text text-anchor="middle" x="680.5" y="-235.3" font-family="monospace" font-size="14.00">3</text>
<polyline fill="none" stroke="black" points="693,-227.5 693,-250.5 "/>
<text text-anchor="middle" x="705.5" y="-235.3" font-family="monospace" font-size="14.00">4</text>
<polyline fill="none" stroke="black" points="718,-227.5 718,-250.5 "/>
<text text-anchor="middle" x="730.5" y="-235.3" font-family="monospace" font-size="14.00">5</text>
<polyline fill="none" stroke="black" points="743,-227.5 743,-250.5 "/>
<text text-anchor="middle" x="755.5" y="-235.3" font-family="monospace" font-size="14.00">6</text>
<polyline fill="none" stroke="black" points="768,-227.5 768,-250.5 "/>
<text text-anchor="middle" x="780.5" y="-235.3" font-family="monospace" font-size="14.00">7</text>
<polyline fill="none" stroke="black" points="793,-227.5 793,-250.5 "/>
<text text-anchor="middle" x="805.5" y="-235.3" font-family="monospace" font-size="14.00">8</text>
<polyline fill="none" stroke="black" points="818,-227.5 818,-250.5 "/>
<text text-anchor="middle" x="830.5" y="-235.3" font-family="monospace" font-size="14.00">9</text>
<polyline fill="none" stroke="black" points="843,-227.5 843,-250.5 "/>
<text text-anchor="middle" x="855.5" y="-235.3" font-family="monospace" font-size="14.00">A</text>
<polyline fill="none" stroke="black" points="868,-227.5 868,-250.5 "/>
<text text-anchor="middle" x="880.5" y="-235.3" font-family="monospace" font-size="14.00">B</text>
<polyline fill="none" stroke="black" points="893,-227.5 893,-250.5 "/>
<text text-anchor="middle" x="905.5" y="-235.3" font-family="monospace" font-size="14.00">C</text>
<polyline fill="none" stroke="black" points="918,-227.5 918,-250.5 "/>
<text text-anchor="middle" x="930.5" y="-235.3" font-family="monospace" font-size="14.00">D</text>
<polyline fill="none" stroke="black" points="943,-227.5 943,-250.5 "/>
<text text-anchor="middle" x="955.5" y="-235.3" font-family="monospace" font-size="14.00">E</text>
<polyline fill="none" stroke="black" points="968,-227.5 968,-250.5 "/>
<text text-anchor="middle" x="980.5" y="-235.3" font-family="monospace" font-size="14.00">F</text>
</g>
<!-- 80&#45;&gt;100 -->
<g id="edge2" class="edge">
<title>80:s&#45;&gt;100:n</title>
<path fill="none" stroke="red" stroke-width="2" d="M519,-346C519,-223.78 777.18,-389.64 792.31,-284.29"/>
<polygon fill="red" stroke="red" stroke-width="2" points="795.82,-284.21 793,-274 788.84,-283.74 795.82,-284.21"/>
</g>
<!-- 56 -->
<g id="node4" class="node">
<title>56</title>
<ellipse fill="none" stroke="black" cx="97" cy="-131.5" rx="27" ry="18"/>
<text text-anchor="middle" x="97" y="-127.8" font-family="monospace" font-size="14.00">56</text>
</g>
<!-- 40&#45;&gt;56 -->
<g id="edge3" class="edge">
<title>40:s&#45;&gt;56:n</title>
<path fill="none" stroke="black" d="M162,-227C162,-186.22 107.69,-193.35 98.36,-160.8"/>
<polygon fill="black" stroke="black" points="101.78,-159.96 97,-150.5 94.84,-160.87 101.78,-159.96"/>
</g>
<!-- 57 -->
<g id="node5" class="node">
<title>57</title>
<ellipse fill="none" stroke="black" cx="187" cy="-131.5" rx="27" ry="18"/>
<text text-anchor="middle" x="187" y="-127.8" font-family="monospace" font-size="14.00">57</text>
</g>
<!-- 40&#45;&gt;57 -->
<g id="edge4" class="edge">
<title>40:s&#45;&gt;57:n</title>
<path fill="none" stroke="black" d="M187,-227C187,-196.72 187,-186.66 187,-160.81"/>
<polygon fill="black" stroke="black" points="190.5,-160.5 187,-150.5 183.5,-160.5 190.5,-160.5"/>
</g>
<!-- c0 -->
<g id="node6" class="node">
<title>c0</title>
<polygon fill="none" stroke="black" points="250,-108.5 250,-154.5 650,-154.5 650,-108.5 250,-108.5"/>
<text text-anchor="middle" x="450" y="-139.3" font-family="monospace" font-size="14.00">00000000a0008000 / 0</text>
<polyline fill="none" stroke="black" points="250,-131.5 650,-131.5 "/>
<text text-anchor="middle" x="262.5" y="-116.3" font-family="monospace" font-size="14.00">0</text>
<polyline fill="none" stroke="black" points="275,-108.5 275,-131.5 "/>
<text text-anchor="middle" x="287.5" y="-116.3" font-family="monospace" font-size="14.00">1</text>
<polyline fill="none" stroke="black" points="300,-108.5 300,-131.5 "/>
<text text-anchor="middle" x="312.5" y="-116.3" font-family="monospace" font-size="14.00">2</text>
<polyline fill="none" stroke="black" points="325,-108.5 325,-131.5 "/>
<text text-anchor="middle" x="337.5" y="-116.3" font-family="monospace" font-size="14.00">3</text>
<polyline fill="none" stroke="black" points="350,-108.5 350,-131.5 "/>
<text text-anchor="middle" x="362.5" y="-116.3" font-family="monospace" font-size="14.00">4</text>
<polyline fill="none" stroke="black" points="375,-108.5 375,-131.5 "/>
<text text-anchor="middle" x="387.5" y="-116.3" font-family="monospace" font-size="14.00">5</text>
<polyline fill="none" stroke="black" points="400,-108.5 400,-131.5 "/>
<text text-anchor="middle" x="412.5" y="-116.3" font-family="monospace" font-size="14.00">6</text>
<polyline fill="none" stroke="black" points="425,-108.5 425,-131.5 "/>
<text text-anchor="middle" x="437.5" y="-116.3" font-family="monospace" font-size="14.00">7</text>
<polyline fill="none" stroke="black" points="450,-108.5 450,-131.5 "/>
<text text-anchor="middle" x="462.5" y="-116.3" font-family="monospace" font-size="14.00">8</text>
<polyline fill="none" stroke="black" points="475,-108.5 475,-131.5 "/>
<text text-anchor="middle" x="487.5" y="-116.3" font-family="monospace" font-size="14.00">9</text>
<polyline fill="none" stroke="black" points="500,-108.5 500,-131.5 "/>
<text text-anchor="middle" x="512.5" y="-116.3" font-family="monospace" font-size="14.00">A</text>
<polyline fill="none" stroke="black" points="525,-108.5 525,-131.5 "/>
<text text-anchor="middle" x="537.5" y="-116.3" font-family="monospace" font-size="14.00">B</text>
<polyline fill="none" stroke="black" points="550,-108.5 550,-131.5 "/>
<text text-anchor="middle" x="562.5" y="-116.3" font-family="monospace" font-size="14.00">C</text>
<polyline fill="none" stroke="black" points="575,-108.5 575,-131.5 "/>
<text text-anchor="middle" x="587.5" y="-116.3" font-family="monospace" font-size="14.00">D</text>
<polyline fill="none" stroke="black" points="600,-108.5 600,-131.5 "/>
<text text-anchor="middle" x="612.5" y="-116.3" font-family="monospace" font-size="14.00">E</text>
<polyline fill="none" stroke="black" points="625,-108.5 625,-131.5 "/>
<text text-anchor="middle" x="637.5" y="-116.3" font-family="monospace" font-size="14.00">F</text>
</g>
<!-- 100&#45;&gt;c0 -->
<g id="edge5" class="edge">
<title>100:s&#45;&gt;c0:n</title>
<path fill="none" stroke="red" stroke-width="2" d="M605,-227C605,-154.75 464.77,-223.53 451.07,-165.05"/>
<polygon fill="red" stroke="red" stroke-width="2" points="454.54,-164.57 450,-155 447.58,-165.32 454.54,-164.57"/>
</g>
<!-- 140 -->
<g id="node7" class="node">
<title>140</title>
<polygon fill="none" stroke="black" points="686,-108.5 686,-154.5 1086,-154.5 1086,-108.5 686,-108.5"/>
<text text-anchor="middle" x="886" y="-139.3" font-family="monospace" font-size="14.00">00000000a0008050 / 0</text>
<polyline fill="none" stroke="black" points="686,-131.5 1086,-131.5 "/>
<text text-anchor="middle" x="698.5" y="-116.3" font-family="monospace" font-size="14.00">0</text>
<polyline fill="none" stroke="black" points="711,-108.5 711,-131.5 "/>
<text text-anchor="middle" x="723.5" y="-116.3" font-family="monospace" font-size="14.00">1</text>
<polyline fill="none" stroke="black" points="736,-108.5 736,-131.5 "/>
<text text-anchor="middle" x="748.5" y="-116.3" font-family="monospace" font-size="14.00">2</text>
<polyline fill="none" stroke="black" points="761,-108.5 761,-131.5 "/>
<text text-anchor="middle" x="773.5" y="-116.3" font-family="monospace" font-size="14.00">3</text>
<polyline fill="none" stroke="black" points="786,-108.5 786,-131.5 "/>
<text text-anchor="middle" x="798.5" y="-116.3" font-family="monospace" font-size="14.00">4</text>
<polyline fill="none" stroke="black" points="811,-108.5 811,-131.5 "/>
<text text-anchor="middle" x="823.5" y="-116.3" font-family="monospace" font-size="14.00">5</text>
<polyline fill="none" stroke="black" points="836,-108.5 836,-131.5 "/>
<text text-anchor="middle" x="848.5" y="-116.3" font-family="monospace" font-size="14.00">6</text>
<polyline fill="none" stroke="black" points="861,-108.5 861,-131.5 "/>
<text text-anchor="middle" x="873.5" y="-116.3" font-family="monospace" font-size="14.00">7</text>
<polyline fill="none" stroke="black" points="886,-108.5 886,-131.5 "/>
<text text-anchor="middle" x="898.5" y="-116.3" font-family="monospace" font-size="14.00">8</text>
<polyline fill="none" stroke="black" points="911,-108.5 911,-131.5 "/>
<text text-anchor="middle" x="923.5" y="-116.3" font-family="monospace" font-size="14.00">9</text>
<polyline fill="none" stroke="black" points="936,-108.5 936,-131.5 "/>
<text text-anchor="middle" x="948.5" y="-116.3" font-family="monospace" font-size="14.00">A</text>
<polyline fill="none" stroke="black" points="961,-108.5 961,-131.5 "/>
<text text-anchor="middle" x="973.5" y="-116.3" font-family="monospace" font-size="14.00">B</text>
<polyline fill="none" stroke="black" points="986,-108.5 986,-131.5 "/>
<text text-anchor="middle" x="998.5" y="-116.3" font-family="monospace" font-size="14.00">C</text>
<polyline fill="none" stroke="black" points="1011,-108.5 1011,-131.5 "/>
<text text-anchor="middle" x="1023.5" y="-116.3" font-family="monospace" font-size="14.00">D</text>
<polyline fill="none" stroke="black" points="1036,-108.5 1036,-131.5 "/>
<text text-anchor="middle" x="1048.5" y="-116.3" font-family="monospace" font-size="14.00">E</text>
<polyline fill="none" stroke="black" points="1061,-108.5 1061,-131.5 "/>
<text text-anchor="middle" x="1073.5" y="-116.3" font-family="monospace" font-size="14.00">F</text>
</g>
<!-- 100&#45;&gt;140 -->
<g id="edge6" class="edge">
<title>100:s&#45;&gt;140:n</title>
<path fill="none" stroke="black" d="M730,-227C730,-154.37 871.14,-223.85 884.92,-165.1"/>
<polygon fill="black" stroke="black" points="888.42,-165.32 886,-155 881.46,-164.57 888.42,-165.32"/>
</g>
<!-- 180 -->
<g id="node8" class="node">
<title>180</title>
<polygon fill="none" stroke="black" points="1122,-108.5 1122,-154.5 1522,-154.5 1522,-108.5 1122,-108.5"/>
<text text-anchor="middle" x="1322" y="-139.3" font-family="monospace" font-size="14.00">00000000a0008060 / 0</text>
<polyline fill="none" stroke="black" points="1122,-131.5 1522,-131.5 "/>
<text text-anchor="middle" x="1134.5" y="-116.3" font-family="monospace" font-size="14.00">0</text>
<polyline fill="none" stroke="black" points="1147,-108.5 1147,-131.5 "/>
<text text-anchor="middle" x="1159.5" y="-116.3" font-family="monospace" font-size="14.00">1</text>
<polyline fill="none" stroke="black" points="1172,-108.5 1172,-131.5 "/>
<text text-anchor="middle" x="1184.5" y="-116.3" font-family="monospace" font-size="14.00">2</text>
<polyline fill="none" stroke="black" points="1197,-108.5 1197,-131.5 "/>
<text text-anchor="middle" x="1209.5" y="-116.3" font-family="monospace" font-size="14.00">3</text>
<polyline fill="none" stroke="black" points="1222,-108.5 1222,-131.5 "/>
<text text-anchor="middle" x="1234.5" y="-116.3" font-family="monospace" font-size="14.00">4</text>
<polyline fill="none" stroke="black" points="1247,-108.5 1247,-131.5 "/>
<text text-anchor="middle" x="1259.5" y="-116.3" font-family="monospace" font-size="14.00">5</text>
<polyline fill="none" stroke="black" points="1272,-108.5 1272,-131.5 "/>
<text text-anchor="middle" x="1284.5" y="-116.3" font-family="monospace" font-size="14.00">6</text>
<polyline fill="none" stroke="black" points="1297,-108.5 1297,-131.5 "/>
<text text-anchor="middle" x="1309.5" y="-116.3" font-family="monospace" font-size="14.00">7</text>
<polyline fill="none" stroke="black" points="1322,-108.5 1322,-131.5 "/>
<text text-anchor="middle" x="1334.5" y="-116.3" font-family="monospace" font-size="14.00">8</text>
<polyline fill="none" stroke="black" points="1347,-108.5 1347,-131.5 "/>
<text text-anchor="middle" x="1359.5" y="-116.3" font-family="monospace" font-size="14.00">9</text>
<polyline fill="none" stroke="black" points="1372,-108.5 1372,-131.5 "/>
<text text-anchor="middle" x="1384.5" y="-116.3" font-family="monospace" font-size="14.00">A</text>
<polyline fill="none" stroke="black" points="1397,-108.5 1397,-131.5 "/>
<text text-anchor="middle" x="1409.5" y="-116.3" font-family="monospace" font-size="14.00">B</text>
<polyline fill="none" stroke="black" points="1422,-108.5 1422,-131.5 "/>
<text text-anchor="middle" x="1434.5" y="-116.3" font-family="monospace" font-size="14.00">C</text>
<polyline fill="none" stroke="black" points="1447,-108.5 1447,-131.5 "/>
<text text-anchor="middle" x="1459.5" y="-116.3" font-family="monospace" font-size="14.00">D</text>
<polyline fill="none" stroke="black" points="1472,-108.5 1472,-131.5 "/>
<text text-anchor="middle" x="1484.5" y="-116.3" font-family="monospace" font-size="14.00">E</text>
<polyline fill="none" stroke="black" points="1497,-108.5 1497,-131.5 "/>
<text text-anchor="middle" x="1509.5" y="-116.3" font-family="monospace" font-size="14.00">F</text>
</g>
<!-- 100&#45;&gt;180 -->
<g id="edge7" class="edge">
<title>100:s&#45;&gt;180:n</title>
<path fill="none" stroke="black" d="M755,-227C755,-103.59 1290.34,-271.95 1320.66,-165.06"/>
<polygon fill="black" stroke="black" points="1324.15,-165.37 1322,-155 1317.21,-164.45 1324.15,-165.37"/>
</g>
<!-- 8009 -->
<g id="node9" class="node">
<title>8009</title>
<ellipse fill="none" stroke="black" cx="488" cy="-18" rx="32.49" ry="18"/>
<text text-anchor="middle" x="488" y="-14.3" font-family="monospace" font-size="14.00">8009</text>
</g>
<!-- c0&#45;&gt;8009 -->
<g id="edge8" class="edge">
<title>c0:s&#45;&gt;8009:n</title>
<path fill="none" stroke="red" stroke-width="2" d="M488,-108C488,-79.62 488,-70.12 488,-46.02"/>
<polygon fill="red" stroke="red" stroke-width="2" points="491.5,-46 488,-36 484.5,-46 491.5,-46"/>
</g>
<!-- 8059 -->
<g id="node10" class="node">
<title>8059</title>
<ellipse fill="none" stroke="black" cx="924" cy="-18" rx="32.49" ry="18"/>
<text text-anchor="middle" x="924" y="-14.3" font-family="monospace" font-size="14.00">8059</text>
</g>
<!-- 140&#45;&gt;8059 -->
<g id="edge9" class="edge">
<title>140:s&#45;&gt;8059:n</title>
<path fill="none" stroke="black" d="M924,-108C924,-79.62 924,-70.12 924,-46.02"/>
<polygon fill="black" stroke="black" points="927.5,-46 924,-36 920.5,-46 927.5,-46"/>
</g>
<!-- 8069 -->
<g id="node11" class="node">
<title>8069</title>
<ellipse fill="none" stroke="black" cx="1360" cy="-18" rx="32.49" ry="18"/>
<text text-anchor="middle" x="1360" y="-14.3" font-family="monospace" font-size="14.00">8069</text>
</g>
<!-- 180&#45;&gt;8069 -->
<g id="edge10" class="edge">
<title>180:s&#45;&gt;8069:n</title>
<path fill="none" stroke="black" d="M1360,-108C1360,-79.62 1360,-70.12 1360,-46.02"/>
<polygon fill="black" stroke="black" points="1363.5,-46 1360,-36 1356.5,-46 1363.5,-46"/>
</g>
</g>
</svg>
