<?xml version="1.0" encoding="UTF-8" standalone="no"?>
<!DOCTYPE svg PUBLIC "-//W3C//DTD SVG 1.1//EN"
 "http://www.w3.org/Graphics/SVG/1.1/DTD/svg11.dtd">
<!-- Generated by graphviz version 2.43.0 (0)
 -->
<!-- Title: %3 Pages: 1 -->
<svg width="408pt" height="163pt"
 viewBox="0.00 0.00 408.00 163.00" xmlns="http://www.w3.org/2000/svg" xmlns:xlink="http://www.w3.org/1999/xlink">
<g id="graph0" class="graph" transform="scale(1 1) rotate(0) translate(4 159)">
<title>%3</title>
<polygon fill="white" stroke="transparent" points="-4,4 -4,-159 404,-159 404,4 -4,4"/>
<!-- N40 -->
<g id="node1" class="node">
<title>N40</title>
<polygon fill="none" stroke="black" points="0,-108.5 0,-154.5 400,-154.5 400,-108.5 0,-108.5"/>
<text text-anchor="middle" x="200" y="-139.3" font-family="monospace" font-size="14.00">00000000a0000050 / 0</text>
<polyline fill="none" stroke="black" points="0,-131.5 400,-131.5 "/>
<text text-anchor="middle" x="12.5" y="-116.3" font-family="monospace" font-size="14.00">0</text>
<polyline fill="none" stroke="black" points="25,-108.5 25,-131.5 "/>
<text text-anchor="middle" x="37.5" y="-116.3" font-family="monospace" font-size="14.00">1</text>
<polyline fill="none" stroke="black" points="50,-108.5 50,-131.5 "/>
<text text-anchor="middle" x="62.5" y="-116.3" font-family="monospace" font-size="14.00">2</text>
<polyline fill="none" stroke="black" points="75,-108.5 75,-131.5 "/>
<text text-anchor="middle" x="87.5" y="-116.3" font-family="monospace" font-size="14.00">3</text>
<polyline fill="none" stroke="black" points="100,-108.5 100,-131.5 "/>
<text text-anchor="middle" x="112.5" y="-116.3" font-family="monospace" font-size="14.00">4</text>
<polyline fill="none" stroke="black" points="125,-108.5 125,-131.5 "/>
<text text-anchor="middle" x="137.5" y="-116.3" font-family="monospace" font-size="14.00">5</text>
<polyline fill="none" stroke="black" points="150,-108.5 150,-131.5 "/>
<text text-anchor="middle" x="162.5" y="-116.3" font-family="monospace" font-size="14.00">6</text>
<polyline fill="none" stroke="black" points="175,-108.5 175,-131.5 "/>
<text text-anchor="middle" x="187.5" y="-116.3" font-family="monospace" font-size="14.00">7</text>
<polyline fill="none" stroke="black" points="200,-108.5 200,-131.5 "/>
<text text-anchor="middle" x="212.5" y="-116.3" font-family="monospace" font-size="14.00">8</text>
<polyline fill="none" stroke="black" points="225,-108.5 225,-131.5 "/>
<text text-anchor="middle" x="237.5" y="-116.3" font-family="monospace" font-size="14.00">9</text>
<polyline fill="none" stroke="black" points="250,-108.5 250,-131.5 "/>
<text text-anchor="middle" x="262.5" y="-116.3" font-family="monospace" font-size="14.00">A</text>
<polyline fill="none" stroke="black" points="275,-108.5 275,-131.5 "/>
<text text-anchor="middle" x="287.5" y="-116.3" font-family="monospace" font-size="14.00">B</text>
<polyline fill="none" stroke="black" points="300,-108.5 300,-131.5 "/>
<text text-anchor="middle" x="312.5" y="-116.3" font-family="monospace" font-size="14.00">C</text>
<polyline fill="none" stroke="black" points="325,-108.5 325,-131.5 "/>
<text text-anchor="middle" x="337.5" y="-116.3" font-family="monospace" font-size="14.00">D</text>
<polyline fill="none" stroke="black" points="350,-108.5 350,-131.5 "/>
<text text-anchor="middle" x="362.5" y="-116.3" font-family="monospace" font-size="14.00">E</text>
<polyline fill="none" stroke="black" points="375,-108.5 375,-131.5 "/>
<text text-anchor="middle" x="387.5" y="-116.3" font-family="monospace" font-size="14.00">F</text>
</g>
<!-- 56 -->
<g id="node2" class="node">
<title>56</title>
<ellipse fill="none" stroke="black" cx="162" cy="-18" rx="27" ry="18"/>
<text text-anchor="middle" x="162" y="-14.3" font-family="monospace" font-size="14.00">56</text>
</g>
<!-- N40&#45;&gt;56 -->
<g id="edge1" class="edge">
<title>N40:s&#45;&gt;56:n</title>
<path fill="none" stroke="black" d="M162,-108C162,-79.62 162,-70.12 162,-46.02"/>
<polygon fill="black" stroke="black" points="165.5,-46 162,-36 158.5,-46 165.5,-46"/>
</g>
</g>
</svg>
