<?xml version="1.0" encoding="UTF-8" standalone="no"?>
<!DOCTYPE svg PUBLIC "-//W3C//DTD SVG 1.1//EN"
 "http://www.w3.org/Graphics/SVG/1.1/DTD/svg11.dtd">
<!-- Generated by graphviz version 2.43.0 (0)
 -->
<!-- Title: %3 Pages: 1 -->
<svg width="159pt" height="116pt"
 viewBox="0.00 0.00 159.00 116.00" xmlns="http://www.w3.org/2000/svg" xmlns:xlink="http://www.w3.org/1999/xlink">
<g id="graph0" class="graph" transform="scale(1 1) rotate(0) translate(4 112)">
<title>%3</title>
<polygon fill="white" stroke="transparent" points="-4,4 -4,-112 155,-112 155,4 -4,4"/>
<!-- node -->
<g id="node1" class="node">
<title>node</title>
<polygon fill="none" stroke="black" points="8.5,-79 8.5,-104 108.5,-104 108.5,-79 8.5,-79"/>
<text text-anchor="start" x="38" y="-88.8" font-family="monospace" font-size="14.00">slot</text>
<text text-anchor="start" x="72" y="-88.8" font-family="monospace" baseline-shift="sub" font-size="14.00">0</text>
<polygon fill="none" stroke="black" points="108.5,-79 108.5,-104 143.5,-104 143.5,-79 108.5,-79"/>
<text text-anchor="start" x="113.5" y="-87.8" font-family="monospace" font-size="14.00">pos</text>
<polygon fill="none" stroke="black" points="8.5,-54 8.5,-79 108.5,-79 108.5,-54 8.5,-54"/>
<text text-anchor="start" x="38" y="-63.8" font-family="monospace" font-size="14.00">slot</text>
<text text-anchor="start" x="72" y="-63.8" font-family="monospace" baseline-shift="sub" font-size="14.00">1</text>
<polygon fill="none" stroke="black" points="108.5,-54 108.5,-79 143.5,-79 143.5,-54 108.5,-54"/>
<text text-anchor="start" x="118" y="-63.8" font-family="monospace" font-size="14.00">h</text>
<text text-anchor="start" x="127" y="-63.8" font-family="monospace" baseline-shift="sub" font-size="14.00">1</text>
<polygon fill="none" stroke="black" points="8.5,-29 8.5,-54 108.5,-54 108.5,-29 8.5,-29"/>
<text text-anchor="start" x="46" y="-37.8" font-family="monospace" font-size="14.00">...</text>
<polygon fill="none" stroke="black" points="108.5,-29 108.5,-54 143.5,-54 143.5,-29 108.5,-29"/>
<text text-anchor="start" x="113.5" y="-37.8" font-family="monospace" font-size="14.00">...</text>
<polygon fill="none" stroke="black" points="8.5,-4 8.5,-29 108.5,-29 108.5,-4 8.5,-4"/>
<text text-anchor="start" x="38" y="-13.8" font-family="monospace" font-size="14.00">slot</text>
<text text-anchor="start" x="72" y="-13.8" font-family="monospace" baseline-shift="sub" font-size="14.00">F</text>
<polygon fill="none" stroke="black" points="108.5,-4 108.5,-29 143.5,-29 143.5,-4 108.5,-4"/>
<text text-anchor="start" x="118" y="-13.8" font-family="monospace" font-size="14.00">h</text>
<text text-anchor="start" x="127" y="-13.8" font-family="monospace" baseline-shift="sub" font-size="14.00">F</text>
</g>
</g>
</svg>
