<?xml version="1.0" encoding="UTF-8" standalone="no"?>
<!DOCTYPE svg PUBLIC "-//W3C//DTD SVG 1.1//EN"
 "http://www.w3.org/Graphics/SVG/1.1/DTD/svg11.dtd">
<!-- Generated by graphviz version 2.43.0 (0)
 -->
<!-- Title: %3 Pages: 1 -->
<svg width="328pt" height="66pt"
 viewBox="0.00 0.00 328.00 66.00" xmlns="http://www.w3.org/2000/svg" xmlns:xlink="http://www.w3.org/1999/xlink">
<g id="graph0" class="graph" transform="scale(1 1) rotate(0) translate(4 62)">
<title>%3</title>
<polygon fill="white" stroke="transparent" points="-4,4 -4,-62 324,-62 324,4 -4,4"/>
<!-- node -->
<g id="node1" class="node">
<title>node</title>
<polygon fill="none" stroke="black" points="8,-29 8,-54 312,-54 312,-29 8,-29"/>
<text text-anchor="start" x="98.5" y="-38.8" font-family="monospace" font-size="14.00">h</text>
<text text-anchor="start" x="107.5" y="-38.8" font-family="monospace" baseline-shift="sub" font-size="14.00">F</text>
<text text-anchor="start" x="114.5" y="-38.8" font-family="monospace" font-size="14.00">...h</text>
<text text-anchor="start" x="148.5" y="-38.8" font-family="monospace" baseline-shift="sub" font-size="14.00">1</text>
<text text-anchor="start" x="155.5" y="-38.8" font-family="monospace" font-size="14.00">h</text>
<text text-anchor="start" x="164.5" y="-38.8" font-family="monospace" baseline-shift="sub" font-size="14.00">0</text>
<text text-anchor="start" x="171.5" y="-38.8" font-family="monospace" font-size="14.00"> / pos</text>
<polygon fill="none" stroke="black" points="8,-4 8,-29 27,-29 27,-4 8,-4"/>
<text text-anchor="start" x="13" y="-12.8" font-family="monospace" font-size="14.00">0</text>
<polygon fill="none" stroke="black" points="27,-4 27,-29 46,-29 46,-4 27,-4"/>
<text text-anchor="start" x="32" y="-12.8" font-family="monospace" font-size="14.00">1</text>
<polygon fill="none" stroke="black" points="46,-4 46,-29 65,-29 65,-4 46,-4"/>
<text text-anchor="start" x="51" y="-12.8" font-family="monospace" font-size="14.00">2</text>
<polygon fill="none" stroke="black" points="65,-4 65,-29 84,-29 84,-4 65,-4"/>
<text text-anchor="start" x="70" y="-12.8" font-family="monospace" font-size="14.00">3</text>
<polygon fill="none" stroke="black" points="84,-4 84,-29 103,-29 103,-4 84,-4"/>
<text text-anchor="start" x="89" y="-12.8" font-family="monospace" font-size="14.00">4</text>
<polygon fill="none" stroke="black" points="103,-4 103,-29 122,-29 122,-4 103,-4"/>
<text text-anchor="start" x="108" y="-12.8" font-family="monospace" font-size="14.00">5</text>
<polygon fill="none" stroke="black" points="122,-4 122,-29 141,-29 141,-4 122,-4"/>
<text text-anchor="start" x="127" y="-12.8" font-family="monospace" font-size="14.00">6</text>
<polygon fill="none" stroke="black" points="141,-4 141,-29 160,-29 160,-4 141,-4"/>
<text text-anchor="start" x="146" y="-12.8" font-family="monospace" font-size="14.00">7</text>
<polygon fill="none" stroke="black" points="160,-4 160,-29 179,-29 179,-4 160,-4"/>
<text text-anchor="start" x="165" y="-12.8" font-family="monospace" font-size="14.00">8</text>
<polygon fill="none" stroke="black" points="179,-4 179,-29 198,-29 198,-4 179,-4"/>
<text text-anchor="start" x="184" y="-12.8" font-family="monospace" font-size="14.00">9</text>
<polygon fill="none" stroke="black" points="198,-4 198,-29 217,-29 217,-4 198,-4"/>
<text text-anchor="start" x="203" y="-12.8" font-family="monospace" font-size="14.00">A</text>
<polygon fill="none" stroke="black" points="217,-4 217,-29 236,-29 236,-4 217,-4"/>
<text text-anchor="start" x="222" y="-12.8" font-family="monospace" font-size="14.00">B</text>
<polygon fill="none" stroke="black" points="236,-4 236,-29 255,-29 255,-4 236,-4"/>
<text text-anchor="start" x="241" y="-12.8" font-family="monospace" font-size="14.00">C</text>
<polygon fill="none" stroke="black" points="255,-4 255,-29 274,-29 274,-4 255,-4"/>
<text text-anchor="start" x="260" y="-12.8" font-family="monospace" font-size="14.00">D</text>
<polygon fill="none" stroke="black" points="274,-4 274,-29 293,-29 293,-4 274,-4"/>
<text text-anchor="start" x="279" y="-12.8" font-family="monospace" font-size="14.00">E</text>
<polygon fill="none" stroke="black" points="293,-4 293,-29 312,-29 312,-4 293,-4"/>
<text text-anchor="start" x="298" y="-12.8" font-family="monospace" font-size="14.00">F</text>
</g>
</g>
</svg>
