<?xml version="1.0" encoding="UTF-8" standalone="no"?>
<!DOCTYPE svg PUBLIC "-//W3C//DTD SVG 1.1//EN"
 "http://www.w3.org/Graphics/SVG/1.1/DTD/svg11.dtd">
<!-- Generated by graphviz version 2.43.0 (0)
 -->
<!-- Title: %3 Pages: 1 -->
<svg width="1099pt" height="401pt"
 viewBox="0.00 0.00 1099.00 401.00" xmlns="http://www.w3.org/2000/svg" xmlns:xlink="http://www.w3.org/1999/xlink">
<g id="graph0" class="graph" transform="scale(1 1) rotate(0) translate(4 397)">
<title>%3</title>
<polygon fill="white" stroke="transparent" points="-4,4 -4,-397 1095,-397 1095,4 -4,4"/>
<!-- 80 -->
<g id="node1" class="node">
<title>80</title>
<polygon fill="none" stroke="black" points="242,-346.5 242,-392.5 642,-392.5 642,-346.5 242,-346.5"/>
<text text-anchor="middle" x="442" y="-377.3" font-family="monospace" font-size="14.00">00000000a0000000 / 3</text>
<polyline fill="none" stroke="black" points="242,-369.5 642,-369.5 "/>
<text text-anchor="middle" x="254.5" y="-354.3" font-family="monospace" font-size="14.00">0</text>
<polyline fill="none" stroke="black" points="267,-346.5 267,-369.5 "/>
<text text-anchor="middle" x="279.5" y="-354.3" font-family="monospace" font-size="14.00">1</text>
<polyline fill="none" stroke="black" points="292,-346.5 292,-369.5 "/>
<text text-anchor="middle" x="304.5" y="-354.3" font-family="monospace" font-size="14.00">2</text>
<polyline fill="none" stroke="black" points="317,-346.5 317,-369.5 "/>
<text text-anchor="middle" x="329.5" y="-354.3" font-family="monospace" font-size="14.00">3</text>
<polyline fill="none" stroke="black" points="342,-346.5 342,-369.5 "/>
<text text-anchor="middle" x="354.5" y="-354.3" font-family="monospace" font-size="14.00">4</text>
<polyline fill="none" stroke="black" points="367,-346.5 367,-369.5 "/>
<text text-anchor="middle" x="379.5" y="-354.3" font-family="monospace" font-size="14.00">5</text>
<polyline fill="none" stroke="black" points="392,-346.5 392,-369.5 "/>
<text text-anchor="middle" x="404.5" y="-354.3" font-family="monospace" font-size="14.00">6</text>
<polyline fill="none" stroke="black" points="417,-346.5 417,-369.5 "/>
<text text-anchor="middle" x="429.5" y="-354.3" font-family="monospace" font-size="14.00">7</text>
<polyline fill="none" stroke="black" points="442,-346.5 442,-369.5 "/>
<text text-anchor="middle" x="454.5" y="-354.3" font-family="monospace" font-size="14.00">8</text>
<polyline fill="none" stroke="black" points="467,-346.5 467,-369.5 "/>
<text text-anchor="middle" x="479.5" y="-354.3" font-family="monospace" font-size="14.00">9</text>
<polyline fill="none" stroke="black" points="492,-346.5 492,-369.5 "/>
<text text-anchor="middle" x="504.5" y="-354.3" font-family="monospace" font-size="14.00">A</text>
<polyline fill="none" stroke="black" points="517,-346.5 517,-369.5 "/>
<text text-anchor="middle" x="529.5" y="-354.3" font-family="monospace" font-size="14.00">B</text>
<polyline fill="none" stroke="black" points="542,-346.5 542,-369.5 "/>
<text text-anchor="middle" x="554.5" y="-354.3" font-family="monospace" font-size="14.00">C</text>
<polyline fill="none" stroke="black" points="567,-346.5 567,-369.5 "/>
<text text-anchor="middle" x="579.5" y="-354.3" font-family="monospace" font-size="14.00">D</text>
<polyline fill="none" stroke="black" points="592,-346.5 592,-369.5 "/>
<text text-anchor="middle" x="604.5" y="-354.3" font-family="monospace" font-size="14.00">E</text>
<polyline fill="none" stroke="black" points="617,-346.5 617,-369.5 "/>
<text text-anchor="middle" x="629.5" y="-354.3" font-family="monospace" font-size="14.00">F</text>
</g>
<!-- 40 -->
<g id="node2" class="node">
<title>40</title>
<polygon fill="none" stroke="black" points="0,-227.5 0,-273.5 400,-273.5 400,-227.5 0,-227.5"/>
<text text-anchor="middle" x="200" y="-258.3" font-family="monospace" font-size="14.00">00000000a0000050 / 0</text>
<polyline fill="none" stroke="black" points="0,-250.5 400,-250.5 "/>
<text text-anchor="middle" x="12.5" y="-235.3" font-family="monospace" font-size="14.00">0</text>
<polyline fill="none" stroke="black" points="25,-227.5 25,-250.5 "/>
<text text-anchor="middle" x="37.5" y="-235.3" font-family="monospace" font-size="14.00">1</text>
<polyline fill="none" stroke="black" points="50,-227.5 50,-250.5 "/>
<text text-anchor="middle" x="62.5" y="-235.3" font-family="monospace" font-size="14.00">2</text>
<polyline fill="none" stroke="black" points="75,-227.5 75,-250.5 "/>
<text text-anchor="middle" x="87.5" y="-235.3" font-family="monospace" font-size="14.00">3</text>
<polyline fill="none" stroke="black" points="100,-227.5 100,-250.5 "/>
<text text-anchor="middle" x="112.5" y="-235.3" font-family="monospace" font-size="14.00">4</text>
<polyline fill="none" stroke="black" points="125,-227.5 125,-250.5 "/>
<text text-anchor="middle" x="137.5" y="-235.3" font-family="monospace" font-size="14.00">5</text>
<polyline fill="none" stroke="black" points="150,-227.5 150,-250.5 "/>
<text text-anchor="middle" x="162.5" y="-235.3" font-family="monospace" font-size="14.00">6</text>
<polyline fill="none" stroke="black" points="175,-227.5 175,-250.5 "/>
<text text-anchor="middle" x="187.5" y="-235.3" font-family="monospace" font-size="14.00">7</text>
<polyline fill="none" stroke="black" points="200,-227.5 200,-250.5 "/>
<text text-anchor="middle" x="212.5" y="-235.3" font-family="monospace" font-size="14.00">8</text>
<polyline fill="none" stroke="black" points="225,-227.5 225,-250.5 "/>
<text text-anchor="middle" x="237.5" y="-235.3" font-family="monospace" font-size="14.00">9</text>
<polyline fill="none" stroke="black" points="250,-227.5 250,-250.5 "/>
<text text-anchor="middle" x="262.5" y="-235.3" font-family="monospace" font-size="14.00">A</text>
<polyline fill="none" stroke="black" points="275,-227.5 275,-250.5 "/>
<text text-anchor="middle" x="287.5" y="-235.3" font-family="monospace" font-size="14.00">B</text>
<polyline fill="none" stroke="black" points="300,-227.5 300,-250.5 "/>
<text text-anchor="middle" x="312.5" y="-235.3" font-family="monospace" font-size="14.00">C</text>
<polyline fill="none" stroke="black" points="325,-227.5 325,-250.5 "/>
<text text-anchor="middle" x="337.5" y="-235.3" font-family="monospace" font-size="14.00">D</text>
<polyline fill="none" stroke="black" points="350,-227.5 350,-250.5 "/>
<text text-anchor="middle" x="362.5" y="-235.3" font-family="monospace" font-size="14.00">E</text>
<polyline fill="none" stroke="black" points="375,-227.5 375,-250.5 "/>
<text text-anchor="middle" x="387.5" y="-235.3" font-family="monospace" font-size="14.00">F</text>
</g>
<!-- 80&#45;&gt;40 -->
<g id="edge1" class="edge">
<title>80:s&#45;&gt;40:n</title>
<path fill="none" stroke="black" d="M254,-346C254,-309.75 209.65,-312.92 201.33,-284.06"/>
<polygon fill="black" stroke="black" points="204.78,-283.45 200,-274 197.85,-284.37 204.78,-283.45"/>
</g>
<!-- c0 -->
<g id="node3" class="node">
<title>c0</title>
<polygon fill="none" stroke="black" points="255,-108.5 255,-154.5 655,-154.5 655,-108.5 255,-108.5"/>
<text text-anchor="middle" x="455" y="-139.3" font-family="monospace" font-size="14.00">00000000a0008000 / 0</text>
<polyline fill="none" stroke="black" points="255,-131.5 655,-131.5 "/>
<text text-anchor="middle" x="267.5" y="-116.3" font-family="monospace" font-size="14.00">0</text>
<polyline fill="none" stroke="black" points="280,-108.5 280,-131.5 "/>
<text text-anchor="middle" x="292.5" y="-116.3" font-family="monospace" font-size="14.00">1</text>
<polyline fill="none" stroke="black" points="305,-108.5 305,-131.5 "/>
<text text-anchor="middle" x="317.5" y="-116.3" font-family="monospace" font-size="14.00">2</text>
<polyline fill="none" stroke="black" points="330,-108.5 330,-131.5 "/>
<text text-anchor="middle" x="342.5" y="-116.3" font-family="monospace" font-size="14.00">3</text>
<polyline fill="none" stroke="black" points="355,-108.5 355,-131.5 "/>
<text text-anchor="middle" x="367.5" y="-116.3" font-family="monospace" font-size="14.00">4</text>
<polyline fill="none" stroke="black" points="380,-108.5 380,-131.5 "/>
<text text-anchor="middle" x="392.5" y="-116.3" font-family="monospace" font-size="14.00">5</text>
<polyline fill="none" stroke="black" points="405,-108.5 405,-131.5 "/>
<text text-anchor="middle" x="417.5" y="-116.3" font-family="monospace" font-size="14.00">6</text>
<polyline fill="none" stroke="black" points="430,-108.5 430,-131.5 "/>
<text text-anchor="middle" x="442.5" y="-116.3" font-family="monospace" font-size="14.00">7</text>
<polyline fill="none" stroke="black" points="455,-108.5 455,-131.5 "/>
<text text-anchor="middle" x="467.5" y="-116.3" font-family="monospace" font-size="14.00">8</text>
<polyline fill="none" stroke="black" points="480,-108.5 480,-131.5 "/>
<text text-anchor="middle" x="492.5" y="-116.3" font-family="monospace" font-size="14.00">9</text>
<polyline fill="none" stroke="black" points="505,-108.5 505,-131.5 "/>
<text text-anchor="middle" x="517.5" y="-116.3" font-family="monospace" font-size="14.00">A</text>
<polyline fill="none" stroke="black" points="530,-108.5 530,-131.5 "/>
<text text-anchor="middle" x="542.5" y="-116.3" font-family="monospace" font-size="14.00">B</text>
<polyline fill="none" stroke="black" points="555,-108.5 555,-131.5 "/>
<text text-anchor="middle" x="567.5" y="-116.3" font-family="monospace" font-size="14.00">C</text>
<polyline fill="none" stroke="black" points="580,-108.5 580,-131.5 "/>
<text text-anchor="middle" x="592.5" y="-116.3" font-family="monospace" font-size="14.00">D</text>
<polyline fill="none" stroke="black" points="605,-108.5 605,-131.5 "/>
<text text-anchor="middle" x="617.5" y="-116.3" font-family="monospace" font-size="14.00">E</text>
<polyline fill="none" stroke="black" points="630,-108.5 630,-131.5 "/>
<text text-anchor="middle" x="642.5" y="-116.3" font-family="monospace" font-size="14.00">F</text>
</g>
<!-- 80&#45;&gt;c0 -->
<g id="edge2" class="edge">
<title>80:s&#45;&gt;c0:n</title>
<path fill="none" stroke="red" stroke-width="2" stroke-dasharray="5,2" d="M455,-346C455,-264.59 455,-241.74 455,-165.13"/>
<polygon fill="red" stroke="red" stroke-width="2" points="458.5,-165 455,-155 451.5,-165 458.5,-165"/>
</g>
<!-- 100 -->
<g id="node4" class="node">
<title>100</title>
<polygon fill="none" stroke="gray" stroke-dasharray="5,2" points="510,-227.5 510,-273.5 910,-273.5 910,-227.5 510,-227.5"/>
<text text-anchor="middle" x="710" y="-258.3" font-family="monospace" font-size="14.00">00000000a0008000 / 1</text>
<polyline fill="none" stroke="gray" stroke-dasharray="5,2" points="510,-250.5 910,-250.5 "/>
<text text-anchor="middle" x="522.5" y="-235.3" font-family="monospace" font-size="14.00">0</text>
<polyline fill="none" stroke="gray" stroke-dasharray="5,2" points="535,-227.5 535,-250.5 "/>
<text text-anchor="middle" x="547.5" y="-235.3" font-family="monospace" font-size="14.00">1</text>
<polyline fill="none" stroke="gray" stroke-dasharray="5,2" points="560,-227.5 560,-250.5 "/>
<text text-anchor="middle" x="572.5" y="-235.3" font-family="monospace" font-size="14.00">2</text>
<polyline fill="none" stroke="gray" stroke-dasharray="5,2" points="585,-227.5 585,-250.5 "/>
<text text-anchor="middle" x="597.5" y="-235.3" font-family="monospace" font-size="14.00">3</text>
<polyline fill="none" stroke="gray" stroke-dasharray="5,2" points="610,-227.5 610,-250.5 "/>
<text text-anchor="middle" x="622.5" y="-235.3" font-family="monospace" font-size="14.00">4</text>
<polyline fill="none" stroke="gray" stroke-dasharray="5,2" points="635,-227.5 635,-250.5 "/>
<text text-anchor="middle" x="647.5" y="-235.3" font-family="monospace" font-size="14.00">5</text>
<polyline fill="none" stroke="gray" stroke-dasharray="5,2" points="660,-227.5 660,-250.5 "/>
<text text-anchor="middle" x="672.5" y="-235.3" font-family="monospace" font-size="14.00">6</text>
<polyline fill="none" stroke="gray" stroke-dasharray="5,2" points="685,-227.5 685,-250.5 "/>
<text text-anchor="middle" x="697.5" y="-235.3" font-family="monospace" font-size="14.00">7</text>
<polyline fill="none" stroke="gray" stroke-dasharray="5,2" points="710,-227.5 710,-250.5 "/>
<text text-anchor="middle" x="722.5" y="-235.3" font-family="monospace" font-size="14.00">8</text>
<polyline fill="none" stroke="gray" stroke-dasharray="5,2" points="735,-227.5 735,-250.5 "/>
<text text-anchor="middle" x="747.5" y="-235.3" font-family="monospace" font-size="14.00">9</text>
<polyline fill="none" stroke="gray" stroke-dasharray="5,2" points="760,-227.5 760,-250.5 "/>
<text text-anchor="middle" x="772.5" y="-235.3" font-family="monospace" font-size="14.00">A</text>
<polyline fill="none" stroke="gray" stroke-dasharray="5,2" points="785,-227.5 785,-250.5 "/>
<text text-anchor="middle" x="797.5" y="-235.3" font-family="monospace" font-size="14.00">B</text>
<polyline fill="none" stroke="gray" stroke-dasharray="5,2" points="810,-227.5 810,-250.5 "/>
<text text-anchor="middle" x="822.5" y="-235.3" font-family="monospace" font-size="14.00">C</text>
<polyline fill="none" stroke="gray" stroke-dasharray="5,2" points="835,-227.5 835,-250.5 "/>
<text text-anchor="middle" x="847.5" y="-235.3" font-family="monospace" font-size="14.00">D</text>
<polyline fill="none" stroke="gray" stroke-dasharray="5,2" points="860,-227.5 860,-250.5 "/>
<text text-anchor="middle" x="872.5" y="-235.3" font-family="monospace" font-size="14.00">E</text>
<polyline fill="none" stroke="gray" stroke-dasharray="5,2" points="885,-227.5 885,-250.5 "/>
<text text-anchor="middle" x="897.5" y="-235.3" font-family="monospace" font-size="14.00">F</text>
</g>
<!-- 80&#45;&gt;100 -->
<g id="edge3" class="edge">
<title>80:s&#45;&gt;100:n</title>
<path fill="none" stroke="gray" stroke-dasharray="5,2" d="M455,-346C455,-231.92 694.31,-381.82 709.27,-284.23"/>
<polygon fill="gray" stroke="gray" points="712.78,-284.22 710,-274 705.8,-283.72 712.78,-284.22"/>
<text text-anchor="middle" x="455" y="-342.3" font-family="monospace" font-size="14.00">x</text>
</g>
<!-- 56 -->
<g id="node5" class="node">
<title>56</title>
<ellipse fill="none" stroke="black" cx="100" cy="-131.5" rx="27" ry="18"/>
<text text-anchor="middle" x="100" y="-127.8" font-family="monospace" font-size="14.00">56</text>
</g>
<!-- 40&#45;&gt;56 -->
<g id="edge4" class="edge">
<title>40:s&#45;&gt;56:n</title>
<path fill="none" stroke="black" d="M162,-227C162,-187 110.2,-192.77 101.29,-160.64"/>
<polygon fill="black" stroke="black" points="104.74,-159.98 100,-150.5 97.8,-160.86 104.74,-159.98"/>
</g>
<!-- 57 -->
<g id="node6" class="node">
<title>57</title>
<ellipse fill="none" stroke="black" cx="190" cy="-131.5" rx="27" ry="18"/>
<text text-anchor="middle" x="190" y="-127.8" font-family="monospace" font-size="14.00">57</text>
</g>
<!-- 40&#45;&gt;57 -->
<g id="edge5" class="edge">
<title>40:s&#45;&gt;57:n</title>
<path fill="none" stroke="black" d="M187,-227C187,-196.7 189.38,-186.68 189.9,-160.81"/>
<polygon fill="black" stroke="black" points="193.4,-160.53 190,-150.5 186.4,-160.47 193.4,-160.53"/>
</g>
<!-- 8009 -->
<g id="node8" class="node">
<title>8009</title>
<ellipse fill="none" stroke="black" cx="493" cy="-18" rx="32.49" ry="18"/>
<text text-anchor="middle" x="493" y="-14.3" font-family="monospace" font-size="14.00">8009</text>
</g>
<!-- c0&#45;&gt;8009 -->
<g id="edge8" class="edge">
<title>c0:s&#45;&gt;8009:n</title>
<path fill="none" stroke="black" d="M493,-108C493,-79.62 493,-70.12 493,-46.02"/>
<polygon fill="black" stroke="black" points="496.5,-46 493,-36 489.5,-46 496.5,-46"/>
</g>
<!-- 100&#45;&gt;c0 -->
<g id="edge6" class="edge">
<title>100:s&#45;&gt;c0:n</title>
<path fill="none" stroke="gray" stroke-dasharray="5,2" d="M522,-227C522,-187.04 466.02,-196.5 456.4,-165.03"/>
<polygon fill="gray" stroke="gray" points="459.85,-164.42 455,-155 452.91,-165.39 459.85,-164.42"/>
<text text-anchor="middle" x="522" y="-223.3" font-family="monospace" font-size="14.00">x</text>
</g>
<!-- 140 -->
<g id="node7" class="node">
<title>140</title>
<polygon fill="none" stroke="gray" stroke-dasharray="5,2" points="691,-108.5 691,-154.5 1091,-154.5 1091,-108.5 691,-108.5"/>
<text text-anchor="middle" x="891" y="-139.3" font-family="monospace" font-size="14.00">00000000a0008050 / 0</text>
<polyline fill="none" stroke="gray" stroke-dasharray="5,2" points="691,-131.5 1091,-131.5 "/>
<text text-anchor="middle" x="703.5" y="-116.3" font-family="monospace" font-size="14.00">0</text>
<polyline fill="none" stroke="gray" stroke-dasharray="5,2" points="716,-108.5 716,-131.5 "/>
<text text-anchor="middle" x="728.5" y="-116.3" font-family="monospace" font-size="14.00">1</text>
<polyline fill="none" stroke="gray" stroke-dasharray="5,2" points="741,-108.5 741,-131.5 "/>
<text text-anchor="middle" x="753.5" y="-116.3" font-family="monospace" font-size="14.00">2</text>
<polyline fill="none" stroke="gray" stroke-dasharray="5,2" points="766,-108.5 766,-131.5 "/>
<text text-anchor="middle" x="778.5" y="-116.3" font-family="monospace" font-size="14.00">3</text>
<polyline fill="none" stroke="gray" stroke-dasharray="5,2" points="791,-108.5 791,-131.5 "/>
<text text-anchor="middle" x="803.5" y="-116.3" font-family="monospace" font-size="14.00">4</text>
<polyline fill="none" stroke="gray" stroke-dasharray="5,2" points="816,-108.5 816,-131.5 "/>
<text text-anchor="middle" x="828.5" y="-116.3" font-family="monospace" font-size="14.00">5</text>
<polyline fill="none" stroke="gray" stroke-dasharray="5,2" points="841,-108.5 841,-131.5 "/>
<text text-anchor="middle" x="853.5" y="-116.3" font-family="monospace" font-size="14.00">6</text>
<polyline fill="none" stroke="gray" stroke-dasharray="5,2" points="866,-108.5 866,-131.5 "/>
<text text-anchor="middle" x="878.5" y="-116.3" font-family="monospace" font-size="14.00">7</text>
<polyline fill="none" stroke="gray" stroke-dasharray="5,2" points="891,-108.5 891,-131.5 "/>
<text text-anchor="middle" x="903.5" y="-116.3" font-family="monospace" font-size="14.00">8</text>
<polyline fill="none" stroke="gray" stroke-dasharray="5,2" points="916,-108.5 916,-131.5 "/>
<text text-anchor="middle" x="928.5" y="-116.3" font-family="monospace" font-size="14.00">9</text>
<polyline fill="none" stroke="gray" stroke-dasharray="5,2" points="941,-108.5 941,-131.5 "/>
<text text-anchor="middle" x="953.5" y="-116.3" font-family="monospace" font-size="14.00">A</text>
<polyline fill="none" stroke="gray" stroke-dasharray="5,2" points="966,-108.5 966,-131.5 "/>
<text text-anchor="middle" x="978.5" y="-116.3" font-family="monospace" font-size="14.00">B</text>
<polyline fill="none" stroke="gray" stroke-dasharray="5,2" points="991,-108.5 991,-131.5 "/>
<text text-anchor="middle" x="1003.5" y="-116.3" font-family="monospace" font-size="14.00">C</text>
<polyline fill="none" stroke="gray" stroke-dasharray="5,2" points="1016,-108.5 1016,-131.5 "/>
<text text-anchor="middle" x="1028.5" y="-116.3" font-family="monospace" font-size="14.00">D</text>
<polyline fill="none" stroke="gray" stroke-dasharray="5,2" points="1041,-108.5 1041,-131.5 "/>
<text text-anchor="middle" x="1053.5" y="-116.3" font-family="monospace" font-size="14.00">E</text>
<polyline fill="none" stroke="gray" stroke-dasharray="5,2" points="1066,-108.5 1066,-131.5 "/>
<text text-anchor="middle" x="1078.5" y="-116.3" font-family="monospace" font-size="14.00">F</text>
</g>
<!-- 100&#45;&gt;140 -->
<g id="edge7" class="edge">
<title>100:s&#45;&gt;140:n</title>
<path fill="none" stroke="gray" stroke-dasharray="5,2" d="M647,-227C647,-117.58 875.53,-258.41 890.26,-165.12"/>
<polygon fill="gray" stroke="gray" points="893.76,-165.23 891,-155 886.78,-164.72 893.76,-165.23"/>
<text text-anchor="middle" x="647" y="-223.3" font-family="monospace" font-size="14.00">x</text>
</g>
<!-- 8059 -->
<g id="node9" class="node">
<title>8059</title>
<ellipse fill="none" stroke="gray" stroke-dasharray="5,2" cx="929" cy="-18" rx="32.49" ry="18"/>
<text text-anchor="middle" x="929" y="-14.3" font-family="monospace" font-size="14.00">8059</text>
</g>
<!-- 140&#45;&gt;8059 -->
<g id="edge9" class="edge">
<title>140:s&#45;&gt;8059:n</title>
<path fill="none" stroke="gray" stroke-dasharray="5,2" d="M929,-108C929,-79.62 929,-70.12 929,-46.02"/>
<polygon fill="gray" stroke="gray" points="932.5,-46 929,-36 925.5,-46 932.5,-46"/>
<text text-anchor="middle" x="929" y="-104.3" font-family="monospace" font-size="14.00">x</text>
</g>
</g>
</svg>
